<svg width="700" height="651" viewBox="0 0 700 651" xmlns="http://www.w3.org/2000/svg"><title>Group 34</title><g fill="none" fill-rule="evenodd"><path d="M172.22 79.532l93.334-55.968m0 0l36.725-12.028m-.001 0l91.73-9.621m0 0l77.136 19.084m0 0l87.883 40.894m-.001-.001L627.662 127m0 0L687 195.318m0-.001l10.958 120.33m0-.001l-6.416 69.276m0 .001l-26.299 47.257m0 0l-7.699 31.003m0 0l-67.994 75.052m0 0l-18.174 22.237m0 0l-64.574 81.251m0 0l-94.725 6.845m0 0l-85.957-5.347m0 0l-25.659-4.062m0 .001l-106.909-73.77m0 0l-72.487-50.89m-.001 0l-67.781-69.277m-.001-.001l-9.62-113.54m0-.001L52 252.994m0 .001l49.82-93.013m0 0l70.4-80.45m0 1.123l54.046-16.465m0 0l39.288-40.626m0 0l104.615 1.068m0 .001l23.839-22.718m0 0l82.216 61.206m0-.001l82.803-1.228m-.001 0l53.19 61.1m0-.001l74.783 72.326m.001 0l-11.492 93.173m0 0l4.062 85.742m0 0l-14.327 57.947m0 .001l-22.21 47.022m-.001.001l-60.109 43.637m0 0l-76.121 90.234m0 0v28.649m0 0l-90.661-6.199m-.001 0l-90.02 7.697m0 0l-87.667-36.989m0 0l-69.277-21.81m0-.002l-42.978-64.145m-.001-.001L71.03 446.718m0 .001l-5.13-94.724m0 0l-22.238-20.313m0-.001l33.248-70.347m0 .001l15.074-29.508m0 0l52.386-91.09m0 .001l81.895-76.548M172.22 80.655l-27.85 60.083m0 0l-42.55 19.244m54.097-36.776l-54.097 36.776m42.55-19.244l-46.826 59.016m0 0l4.276-39.771m-4.276 39.771L52 252.994m45.544-53.24l-20.634 61.58m0 .001l5.667 101.139M52 252.995l19.03 31.004m5.88-22.664l-5.88 22.664m0 0l-5.13 67.996m-13.9-99l13.899 99m-13.899-99l39.984-21.168m0 0l17.962 76.762m0 0l-66.284 23.093m27.368-47.683l11.547 78.475m0-.001L65.9 351.994m-22.238-20.313l70.132 82.108m0 .001l-60.512 31.433m0-.001L65.9 351.994m16.677 10.479L71.03 447.787m11.547-85.314l5.56 84.245m-.001.001l-34.854-1.496m34.854 1.496l32.929 67.781m-32.929-67.781l88.736 57.305m0 0l-63.078-90.234m0 0l7.27 99.643m-32.928-66.714l76.12 57.305m.001 0l71.203 39.556m-71.203-39.556l-43.192 10.477m43.192-10.477l-38.06 16.25m50.675-16.25l16.68 61.365m-1.712 16.039l-27.583-77.404m-38.06 16.25l65.644 61.153m-22.665 2.993l24.376-19.03m-1.712 16.038l46.613 24.804m-69.277-21.812l22.665-2.992m1.711-16.038l44.9 39.77m16.251 11.975l28.652-21.81M169.176 584.42l85.527 32.715m0 0l45.758 22.025m0 0l-6.627-99.215m-10.478 55.381l87.776 2.565m-87.776-2.565l66.072 32.822m-94.725-11.013l94.725 11.014m-48.967 11.011l97.504-34m-48.537 22.988l-23.308 15.073m23.308-15.073l21.704-30.257m26.833 7.269l14.112 43.408m-62.649-20.42l66.713 7.376m-66.713-7.376l84.032-5.988m0 0l-35.495-17m0 0l-105.201-65.215m-57.304 3.635l135.672 54.312m0-.001l62.328 24.268m-198-78.579l47.896 51.746m0 0l-91.516-13.899m1.712-16.037l100.282-25.445m-116.962-35.921l115.892 35.921m-57.304 3.635l-24.805-66.071m0 0l-33.783 26.516m0-.001l98.36-41.697m-.001 0l105.629 69.279m0 0l-87.026 8.34m87.026-8.34l17.104 73.555m.001-.001l90.02-66.925m0 0l-107.126-6.629m107.126 6.629l18.816 74.84m.001-.001l-108.837-7.913m35.602 16.542l24.055-41.345m0 0l-86.49 17.533m86.49-17.533l56.235 5.56m.001-.001l18.174-55.807m-.001 0l-74.409 50.248M433.46 622.16l80.398-36.243m-97.718 49.607l17.32-13.364m-17.32 13.364l118.673-21.864m-.001 0l-28.01 28.064m0-28.65l-94.725 35.494m122.735-34.908l122.732-150.477M506.802 613.074l64.574-52.602m-57.518 25.445l13.257 18.122m-13.257-18.122l75.692-47.682m-57.519-8.125l-45.329 8.125m45.329-8.125l40.698 4.812m-40.698-4.812l50.892-7.27m0 0l-11.547 37.633m11.547-37.633l-28.44-78.473m0 0l-67.78 93.868m-.001 0L419.99 435.386m0 .001l134.493 8.98m69.064-31.217l-40.624 109.69m40.624-109.69l19.485 66.053m-19.485-66.053l67.995-28.228m0 .001l-74.647 128.103m-62.412-68.659L585.7 334.249m-31.217 110.118l-64.575-82.322m64.575 82.322l69.063-31.218m.001.001l-37.847-78.9M419.99 435.387l-39.13 96.22m39.13-96.22l-144.759 26.94m0 0l17.532 77.618m239.268-9.835l5.39-62.117m-5.39 62.117l78.258-50.907m28.44-88.077l18.815 72.058m10.264-157.804l-44.261 106.7m56.023-37.848l-40.842 16.894m59.23-75.48l-18.389 58.586m-11.761-68.852l23.734 79.543M651.77 305.38l27.8 68.853m-27.8-68.853l-13.041 85.746m13.041-85.746l-38.7 20.103m0-.001l54.737-20.102m.001 0l30.15 10.267m0-.001l-22.45-27.156m-7.7 16.89l-32.074-96.645m-31.111 4.275l63.185 92.37m-16.038 0l23.738-16.89m0 0l-41.483-62.864m-.001 0l-19.886 13.045m-1.068-.001l38.7 66.71m-38.7-66.71l-52.6 25.979m44.153-51.639L585.7 334.249m-68.423-92.345L585.7 334.25m-68.423-92.346l-27.369 120.141m27.369-120.141L605.8 213.01m-88.523 28.894l-119.312 46.692m258.13-41.976L551 179m83.024 46.626l18.476 81.56m-18.476-81.56l37.42-20.953m15.288-7.202l-50.998 11.263m-.001 0l-8.07-81.733m8.07 81.733l-23.518-85.743m-11.763-10.705l35.764 97.902m-35.764-97.902l4.171 100.725M480.071 94.445L604.623 213.01M480.071 94.445l37.206 147.46m-37.206-147.46l-67.889 79.84m188.27-61.999l-120.38-17.841m120.38 17.841L471.143 20.999m129.309 91.287L476.223 63.12m67.782 45.734l15.02-46.962m-15.02 46.962l39.13 32.501m-39.13-32.501l68.21 14.137m.001 0l15.446 4.01M477.506 63.629l66.499 45.226m0-.001l-51.531 8.125m0 .001l90.66 24.375m-90.66-24.375l28.438 26.514m-28.438-26.514l-14.968-53.352m-1.282-.508L370.169 24.634m0-.001l100.975-3.634m0 0l6.362 42.63M344.295 42.313l25.874-17.68m-25.874 17.68l135.776 52.132m-70.988-39.261l-15.075-53.27m0 1.097l-65.323 38.436m-1.283-.001l-25.124-29.91m0 0l67.891 13.097m-67.891-13.097L223.27 72.422m0 0l-8.124-22.582m0 0l50.408-26.275M215.146 49.84L172.22 79.532m42.926-29.692l-59.23 73.366m68.337-51.54l-86.299 83.159m0 0l78.475-4.464m0 0l7.824-78.695m0 0L168.96 174.284m0 0l-24.59-33.546m24.59 33.546l-76.976 57.543m76.976-57.543l101.779-36.777M167.89 174.284l54.953 17.747m-78.473 11.974l-6.416-49.18m6.416 49.18l-67.46 57.33m67.46-57.33l-37.634 78.688m109.693-132.332l-72.06 53.644m72.06-53.644l6.414 41.67m0 0l47.896-72.274M258.98 69.724l-42.551 80.637m42.551-80.637l11.76 50.032m0 .001l-55.595 30.605m11.121-86.172l94.509 55.566m-50.035.001l67.354-35.705m.001 0l13.898 56.687m-31.219-20.982l-50.035 17.75m.001 0l26.728 70.562m23.306-89.806l-21.596 99.855m29.507-176.672l-63.131-16.813M226.266 64.19l101.137-21.877m-.001 0L258.98 69.724m0 0l79.114 14.327m.001.001l-10.692-41.738m10.692 41.738l70.988-28.867m0-.001l14.113 39.557m0 0l-85.102-10.689m6.201-41.739l-16.893-.867m81.978 14.571l83.094 60.962m0 .001l-69.277-22.24m69.277 22.24L427.9 172.786m0 .001l-4.703-78.046m4.703 78.046l-75.906-32.05m231.141.618l44.62-13.419m-44.62 13.419l17.317-29.069m-17.317 29.069l50.89 84.27m-.001.001l-6.27-97.69m7.979 80.798l62.225 106.912M333.39 496.968l7.698-63.934m-7.698 63.934l73.128-15.825m-73.128 15.825l-25.551 75.586m25.551-75.586l-64.36-13.364m-92.158-102.315l98.36 81.038m-.001 0l3.85-79.327m-65.218 22.13l-3.208 72.379m0 0l-46.398 26.516m12.615-.001V381.29m0-.001l-63.078 32.5m28.226 16.892l17.318-86.383m0 .001L81.522 361.81m28.424-53.221l3.848 106.27M81.522 361.81l60.497 68.871m.001 0l-53.884 16.037m53.884-16.037l70.24 46.827M106.736 282.692l-24.159 79.781m110.759-97.076l91.09 69.707m-55.166-10.51L279.08 383m-49.82-58.406l-15.396 80.536m-36.992-23.841l107.554-46.185m-125.088 9.195l69.922-19.705m-6.417-132.563l76.588 24.911m64.537-7.994l63.932-36.161m0 0v75.292m0 0l-63.933-39.131m-1.068 0l1.068 72.271m.001.001l-64.537-64.278m-.001 0l-.252 91.434m0 .001l-56.234-60.298m-21.17-56.048l21.17 56.048m-.001 0l-61.84 20.526m.001 0l40.67-76.574m-40.67 76.574l-71.157 39.983m71.157-39.983l48.156 55.988m-48.156-55.988l-21.766 75.693m69.922-19.704l12.656-76.175m-12.656 76.175l69.918-16.217m0 0L279.08 383m20.098-74.623l64.79-27.157m0 0l-11.547 72.576m-.001.001l-53.242-45.42m64.79-27.157l60.298 43.373m0 .001l3.634-76.516m0 .001l-63.933 33.14m63.933-33.14l67.46-32.93m0 .001l6.735 76.775m.001.001L427.9 248.079m64.574-131.099l2.887 98.17m146.1 3.213L574 176m-80.083 39.15l73.181-32.716m0 0l45.972 56.236m-52.6 25.978l-65.11-49.498m-302.024 50.247l-24.376-91.113m24.376 91.113L176.872 381.29m0-.001l-66.926-72.7m0 0l57.944-134.305m442.4 304.919l47.254-16.02m-47.254 16.02l-20.74 59.032m0 0l-16.82-3.313m-337.27 8.658l-43.619 37.848m43.619-37.848l39.772-81.253m144.758-26.94L284.425 335.103M419.99 435.387l-22.025-146.79m22.025 146.79l69.918-73.342m-16.25 77.832l36.965-51.425m-93.199 14.753l56.234 36.672m-56.234-36.672l6.842-78.611m49.392 115.283l2.502 82.108m-2.502-82.108l63.763 28.116m-130.903 13.149l67.14-41.266M279.08 383l73.341-29.203m-.001 0l71.846-29.203m0 0l77.83-32.668m0 0l58.375-27.277M423.196 94.741l-71.203 45.997m-2.137.617l-29.082-23.093m0 .001l23.522-75.95m-23.522 75.95l159.298-23.818m-128.079 46.293l11.975 68.21m-66.5-.88l65.43.88M352.42 353.797l-11.332 79.237m0 0L279.08 383m0 0l-65.217 22.13m0 0l-54.525-60.83m-17.318 86.381l71.844-25.55m353.234-222.697l-6.627 82.214m-.001 0l9.623 110.065m13.042-233.358l-16.037 41.08m16.037-41.08L605.8 213.01m0 0l8.338 25.66m0 0l-1.068 86.812m0 0l-52.6-60.834m52.6 60.834l25.658 65.644m.001 0l-68.636-16.412m0 0l42.977-49.232m-188.804-.888l65.643 37.45M604.623 213.01l31.11-4.275m-338.265-.667l54.525-67.33m-54.525 67.33l-55.552 40.351m99.172 184.615l65.43 48.108m0 0l69.643 40.843m-.001 0l61.261-53.992M433.46 622.16l101.352-8.5m-226.973-41.107l-24.483 22.774m132.784 40.197l-4.062 13.044M352.42 353.797l65.004 49.408m-132.998-68.101l113.539-46.508m108.729 6.202l63.398 79.916m-172.127-86.118l14.218-114.313m0 .001l-113.005 43.834m0 0l98.787 70.479m-69.28-247.151l-104.432 30.22m120.042-29.353L470.74 61.131m6.766 2.498l-68.126-7.611m0-.001l-65.085-13.704m157.801 249.613l8.527 96.526" stroke="#03DF84" stroke-width=".25" opacity=".829"/><path d="M173.962 79.858a2.003 2.003 0 1 1-4.005.003 2.003 2.003 0 0 1 4.005-.003m-71.212 80.124a1.356 1.356 0 1 1-2.713.002 1.356 1.356 0 0 1 2.713-.002m-4.183 40.168a1.362 1.362 0 1 1-2.724.004 1.362 1.362 0 0 1 2.724-.005m-5.262 31.678a1.32 1.32 0 1 1-2.64 0 1.32 1.32 0 0 1 2.64 0M53.22 252.995a1.22 1.22 0 1 1-2.44 0 1.22 1.22 0 0 1 2.44 0m24.958 8.34a1.267 1.267 0 1 1-2.534-.003 1.267 1.267 0 0 1 2.534.003m-33.137 70.881a1.38 1.38 0 1 1-2.76.001 1.38 1.38 0 0 1 2.76-.001m22.306 20.134a1.49 1.49 0 1 1-2.98 0 1.49 1.49 0 0 1 2.98 0m16.551 10.59a1.384 1.384 0 1 1-2.768-.002 1.384 1.384 0 0 1 2.769.002m26.999-54.351a.953.953 0 1 1-1.906 0 .953.953 0 0 1 1.906 0m50.821 35.71a1.846 1.846 0 1 1-3.693 0 1.846 1.846 0 0 1 3.693 0m69.58-19.705a2.04 2.04 0 1 1-4.078-.002 2.04 2.04 0 0 1 4.078.002m-36.34-59.197a1.622 1.622 0 1 1-3.244 0 1.622 1.622 0 0 1 3.244 0m-12.173 4.176a1.68 1.68 0 0 1-1.682 1.681 1.68 1.68 0 1 1 0-3.363c.93 0 1.682.752 1.682 1.682m-4.136 111.716a1.778 1.778 0 1 1-3.556-.001 1.778 1.778 0 0 1 3.555 0m-34.344 49.393a2.284 2.284 0 1 1-4.569 0 2.284 2.284 0 0 1 4.569 0M115.99 413.79a2.194 2.194 0 1 1-4.39 0 2.194 2.194 0 0 1 4.39 0m-25.153 33.401a2.474 2.474 0 0 1-2.471 2.473 2.472 2.472 0 1 1 2.471-2.473m-18.042-1.207a1.764 1.764 0 1 1-3.526 0 1.764 1.764 0 0 1 3.526 0m-18.112-.762c0 .775-.626 1.4-1.4 1.4a1.399 1.399 0 1 1 0-2.799c.774 0 1.4.625 1.4 1.4m68.099 69.277a1.718 1.718 0 1 1-3.437 0 1.718 1.718 0 0 1 3.437 0m6.978 4.571c0 .791-.641 1.434-1.432 1.434a1.434 1.434 0 0 1 0-2.867c.79 0 1.432.642 1.432 1.433m36.44-15.047a1.942 1.942 0 1 1-3.884 0 1.942 1.942 0 0 1 3.884 0m46.396-26.515a1.938 1.938 0 1 1-3.88 0 1.94 1.94 0 0 1 3.88 0m-34.081 26.559a1.827 1.827 0 1 1-3.654 0 1.827 1.827 0 0 1 3.654 0m14.927 77.36a1.603 1.603 0 1 1-3.206-.002 1.603 1.603 0 0 1 3.206.001m-22.804 2.995a1.464 1.464 0 1 1-2.926-.002 1.464 1.464 0 0 1 2.926.002m69.121 20.738a1.306 1.306 0 1 1-2.611 0 1.306 1.306 0 0 1 2.61 0m16.184 11.975a1.24 1.24 0 1 1-2.478-.001 1.24 1.24 0 0 1 2.478 0m28.955-21.808a1.54 1.54 0 1 1-3.082 0 1.54 1.54 0 1 1 3.082 0m24.305-22.773a1.367 1.367 0 0 1-2.732 0 1.367 1.367 0 0 1 2.732 0m-7.377 66.607c0 .752-.61 1.36-1.364 1.36a1.362 1.362 0 1 1 1.364-1.36m26.242 4.061a1.947 1.947 0 1 1-3.893.001 1.947 1.947 0 0 1 3.893 0m23.287-15.106a1.493 1.493 0 0 1-2.986 0 1.492 1.492 0 1 1 2.986 0m20.631-30.225a1.46 1.46 0 0 1-2.92 0 1.46 1.46 0 1 1 2.92 0m41.854 50.677a1.762 1.762 0 1 1-3.524 0 1.762 1.762 0 0 1 3.524 0m3.575-13.044a1.274 1.274 0 1 1-2.548 0 1.274 1.274 0 0 1 2.548 0m-18.126-30.791a1.324 1.324 0 1 1-2.647.003 1.324 1.324 0 0 1 2.647-.003m35.76 17.427a1.588 1.588 0 1 1-3.176-.002 1.588 1.588 0 0 1 3.176.002m24.034-41.714a1.892 1.892 0 1 1-3.785-.003 1.892 1.892 0 0 1 3.785.003m49.274 32.628a1.554 1.554 0 1 1-3.11 0 1.554 1.554 0 0 1 3.11 0m-.199 28.649a2 2 0 1 1-4 .003 2 2 0 0 1 4-.003m28.099-28a1.667 1.667 0 1 1-3.335 0 1.667 1.667 0 0 1 3.335 0m-20.339-27.807a1.526 1.526 0 1 1-1.525-1.524c.84 0 1.525.682 1.525 1.524m12.798 17.427a1.601 1.601 0 1 1-3.203.002 1.601 1.601 0 0 1 3.203-.002m44.183-42.871a1.523 1.523 0 0 1-3.046 0 1.522 1.522 0 0 1 3.046 0m18.457-21.809a1.805 1.805 0 1 1-3.61-.001 1.805 1.805 0 0 1 3.61 0m-57.795-7.879a1.749 1.749 0 1 1-3.497.001 1.749 1.749 0 0 1 3.497-.001m-44.841 7.452a1.507 1.507 0 1 1-3.016 0 1.507 1.507 0 1 1 3.016 0m-10.902-16.25a1.656 1.656 0 1 1-3.313 0 1.656 1.656 0 1 1 3.313 0m106.443.855a1.338 1.338 0 1 1-2.675-.001 1.338 1.338 0 0 1 2.675 0m59.927-44.531a1.42 1.42 0 1 1-2.839 0 1.42 1.42 0 0 1 2.839 0m-31.144.176a2.035 2.035 0 1 1-4.07 0 2.035 2.035 0 0 1 4.07 0m5.427 33.676a1.576 1.576 0 1 1-3.152 0 1.576 1.576 0 0 1 3.152 0m40.709-48.977a1.633 1.633 0 1 1-3.267.001 1.633 1.633 0 0 1 3.267 0m-120.481 4.15c0 .823-.666 1.486-1.487 1.486a1.487 1.487 0 1 1 1.487-1.486m18.55-23.101a2.365 2.365 0 1 1-4.729 0 2.365 2.365 0 0 1 4.73 0m110.093-12.053a1.716 1.716 0 1 1-3.434 0 1.717 1.717 0 1 1 3.434 0m-42.152-19.192c0 .998-.807 1.804-1.803 1.804a1.802 1.802 0 0 1-1.803-1.804 1.803 1.803 0 1 1 3.607 0m67.912-27.898a1.56 1.56 0 1 1-3.121.001 1.56 1.56 0 0 1 3.12-.001m-11.854-10.858a1.678 1.678 0 1 1-3.356.002 1.678 1.678 0 0 1 3.356-.002m-40.757 16.894c0 .973-.788 1.762-1.763 1.762a1.763 1.763 0 1 1 1.763-1.762m-68.606-15.663a1.795 1.795 0 1 1-1.794-1.796c.992 0 1.794.803 1.794 1.796m42.885-49.555a1.7 1.7 0 1 1-3.402 0 1.7 1.7 0 0 1 3.402 0m38.173-20.528a1.173 1.173 0 1 1-2.347 0 1.174 1.174 0 0 1 2.347 0m23.168-16.89a1.001 1.001 0 1 1-1.002-1.003c.554 0 1.002.449 1.002 1.003m-7.011 16.89a1.29 1.29 0 1 1-2.582.003 1.29 1.29 0 0 1 2.582-.002m30.487 10.265a1.629 1.629 0 1 1-3.255-.001 1.629 1.629 0 0 1 3.255.001m-64.325-89.806a1.237 1.237 0 1 1-2.475.002 1.237 1.237 0 0 1 2.475-.001m-20.952 13.241a1 1 0 1 1-2 .001 1 1 0 0 1 2-.001m-8.188-25.902a.835.835 0 1 1-.836-.836c.461 0 .836.373.836.836m30.766-4.27a1.105 1.105 0 1 1-2.211-.003 1.105 1.105 0 0 1 2.21.003m51.015-12.657a.769.769 0 1 1-1.537 0 .769.769 0 0 1 1.537 0m-57.852-68.744a1.88 1.88 0 1 1-3.759-.001 1.88 1.88 0 0 1 3.759 0m-16.108-4.089a1.728 1.728 0 1 1-3.455 0 1.728 1.728 0 0 1 3.455 0m-28.888 17.936a1.918 1.918 0 1 1-3.836-.001 1.918 1.918 0 0 1 3.836.001M493.94 116.98a1.464 1.464 0 1 1-2.929-.003 1.464 1.464 0 0 1 2.928.002m-11.973-22.238a1.585 1.585 0 1 1-3.17.002 1.585 1.585 0 0 1 3.17-.002m63.274 14.113a1.233 1.233 0 1 1-2.47 0 1.234 1.234 0 1 1 2.47 0m15.52-46.962a1.735 1.735 0 0 1-3.471 0 1.736 1.736 0 0 1 3.472 0M472.52 20.999a1.376 1.376 0 1 1-2.752 0 1.376 1.376 0 0 1 2.753 0M395.887 1.992a1.17 1.17 0 1 1-2.34.002 1.17 1.17 0 0 1 2.34-.002m-23.695 22.641a1.558 1.558 0 1 1-3.116-.001 1.558 1.558 0 0 1 3.115 0m-68.194-12.775c0 .748-.607 1.353-1.356 1.353a1.354 1.354 0 1 1 0-2.707c.75 0 1.356.606 1.356 1.354m24.75 29.589a1.346 1.346 0 1 1-1.345-1.346c.742 0 1.345.603 1.345 1.346m17.243.978a.946.946 0 1 1-1.893 0 .946.946 0 0 1 1.892 0m-78.198-18.327c0 .877-.71 1.59-1.586 1.59a1.588 1.588 0 0 1 0-3.175c.876 0 1.586.71 1.586 1.585m72.679 59.955a1.841 1.841 0 0 1-3.682 0 1.842 1.842 0 1 1 3.682 0m-79.675-13.28a1.511 1.511 0 0 1-3.021 0 1.51 1.51 0 1 1 3.021 0m-33.089-7.07a1.441 1.441 0 0 1-2.88 0 1.44 1.44 0 0 1 2.88 0m-11.099-14.257a1.855 1.855 0 0 1-1.857 1.855 1.855 1.855 0 1 1 0-3.71c1.026 0 1.857.83 1.857 1.855m8.861 22.218a1.48 1.48 0 0 1-1.478 1.479 1.48 1.48 0 1 1 1.478-1.479m46.945 47.826a1.943 1.943 0 0 1-3.883 0 1.94 1.94 0 0 1 3.883 0m.067 18.018a1.741 1.741 0 1 1-1.741-1.742 1.74 1.74 0 0 1 1.741 1.742m49.579-17.962a1.284 1.284 0 1 1-2.569 0 1.284 1.284 0 0 1 2.569 0m31.501 21.81a1.569 1.569 0 1 1-3.139-.001 1.569 1.569 0 0 1 3.14.001m-214.339 13.471a1.267 1.267 0 1 1-2.534 0 1.267 1.267 0 0 1 2.534 0m78.846-5.171a1.64 1.64 0 1 1-3.28-.002 1.64 1.64 0 0 1 3.28.002m-47.74 24.629a1.368 1.368 0 1 1-2.736 0 1.368 1.368 0 0 1 2.736 0m-24.521 29.721a1.435 1.435 0 1 1-1.436-1.437c.794 0 1.436.643 1.436 1.437m77.881-11.974a1.91 1.91 0 1 1-3.823 0 1.912 1.912 0 1 1 3.822 0m20.831 56.048a1.574 1.574 0 1 1-3.15 0 1.574 1.574 0 0 1 3.15 0m53.847-40.011a.898.898 0 1 1-1.796 0 .898.898 0 0 1 1.796 0m2.069 9.462a1.13 1.13 0 1 1-2.26.002 1.13 1.13 0 0 1 2.26-.002m64.47-8.582a1.202 1.202 0 1 1-1.203-1.204c.665 0 1.203.539 1.203 1.204m48.376-34.664a1.097 1.097 0 1 1-2.193 0 1.097 1.097 0 0 1 2.193 0m15.446-1.497a.826.826 0 1 1-1.652 0 .826.826 0 0 1 1.652 0M365.837 281.22a1.442 1.442 0 1 1-2.884.001 1.442 1.442 0 0 1 2.884-.002m-65.351 27.158a1.309 1.309 0 1 1-2.617-.002 1.309 1.309 0 0 1 2.617.002m-15.059 26.93a1.48 1.48 0 0 1-2.958 0 1.48 1.48 0 0 1 2.958 0m-69.964 69.823a1.598 1.598 0 1 1-3.195 0 1.598 1.598 0 0 1 3.195 0m64.779-22.383a1.444 1.444 0 1 1-2.89 0 1.444 1.444 0 0 1 2.89 0m-3.072 79.58a1.94 1.94 0 1 1-3.88.002 1.94 1.94 0 0 1 3.88-.002m-6.696 21.659a1.825 1.825 0 0 1-3.652 0 1.825 1.825 0 1 1 3.652 0m65.039 12.659a1.802 1.802 0 1 1-3.604.004 1.802 1.802 0 0 1 3.604-.004m6.898-63.611a1.323 1.323 0 1 1-2.646-.002 1.323 1.323 0 0 1 2.646.002m77.314-29.829a1.66 1.66 0 1 1-3.321 0 1.66 1.66 0 0 1 3.32 0m1.902 32.182a1.637 1.637 0 1 1-3.274 0 1.637 1.637 0 1 1 3.274 0m-67.832-81.59a1.372 1.372 0 1 1-2.744.002 1.372 1.372 0 0 1 2.744-.002m45.56-65.201a1.39 1.39 0 1 1-2.78.003 1.39 1.39 0 0 1 2.78-.002m26.146 35.997a1.234 1.234 0 1 1-2.468-.002 1.234 1.234 0 0 1 2.467.002m86.627 63.858a1.503 1.503 0 1 1-3.006 0 1.503 1.503 0 0 1 3.006 0m-9.494-96.526a1.39 1.39 0 1 1-2.78 0 1.39 1.39 0 0 1 2.78 0m6.018 3.749a1.261 1.261 0 1 1-2.522-.001 1.261 1.261 0 0 1 2.522 0m53.882-30.613a1.647 1.647 0 1 1-3.296 0c0-.91.737-1.647 1.648-1.647.911 0 1.648.737 1.648 1.647m-43.789-23.157a1.468 1.468 0 1 1-2.935-.001 1.468 1.468 0 0 1 2.935.001m-22.131-26.754a1.253 1.253 0 0 1-2.504 0 1.253 1.253 0 0 1 2.504 0m71.761-32.274a1.31 1.31 0 1 1-2.619 0 1.308 1.308 0 1 1 2.62 0M475.72 438.97a2.062 2.062 0 1 1-4.123-.001 2.062 2.062 0 0 1 4.124.002m-67.416 42.654a1.305 1.305 0 1 1-2.612 0 1.307 1.307 0 1 1 2.612 0m20.725-233.546a1.132 1.132 0 1 1-1.131-1.133c.625 0 1.131.506 1.131 1.133M145.655 140.738a1.285 1.285 0 0 1-2.568 0 1.283 1.283 0 0 1 2.568 0m11.907-17.73a1.487 1.487 0 1 1-2.975 0 1.487 1.487 0 0 1 2.975 0m253.562-66.991a1.742 1.742 0 1 1-3.484.002 1.742 1.742 0 0 1 3.484-.002m67.884 8.173a1.502 1.502 0 1 1-3.004-.001 1.502 1.502 0 0 1 3.004.001m-54.191 30.551a1.621 1.621 0 1 1-3.242 0 1.621 1.621 0 0 1 3.242 0m97.603 48.753a1.509 1.509 0 1 1-3.017 0 1.509 1.509 0 0 1 3.017 0m150.076 61.179a1.053 1.053 0 1 1-2.106.001 1.053 1.053 0 0 1 2.106-.001M382.028 531.606a1.169 1.169 0 0 1-2.336 0 1.167 1.167 0 0 1 2.336 0m-87.848 8.339a1.416 1.416 0 1 1-2.833.002 1.416 1.416 0 0 1 2.833-.002m-57.105 3.635a1.614 1.614 0 1 1-3.228 0 1.614 1.614 0 0 1 3.228 0" fill="#33FBA3" opacity=".668"/><path d="M478.796 265.397c0 .991-108.918 1.794-243.274 1.794-134.355 0-243.276-.803-243.276-1.794 0-.99 108.921-1.793 243.276-1.793 134.356 0 243.274.803 243.274 1.793m297.322 41.158c0 .99-58.931 1.793-131.624 1.793-72.695 0-131.627-.803-131.627-1.793 0-.99 58.932-1.793 131.627-1.793 72.693 0 131.624.803 131.624 1.793M553.54 436.819c0 .991-58.931 1.794-131.624 1.794-72.695 0-131.627-.803-131.627-1.794 0-.99 58.932-1.792 131.627-1.792 72.693 0 131.624.802 131.624 1.792m-243.974 68.033c0 .992-58.93 1.794-131.624 1.794-72.695 0-131.627-.802-131.627-1.794 0-.99 58.932-1.792 131.627-1.792 72.694 0 131.624.802 131.624 1.792m365.543-387.873c0 .99-82.981 1.792-185.345 1.792s-185.348-.802-185.348-1.792c0-.991 82.984-1.794 185.348-1.794 102.364 0 185.345.803 185.345 1.794"/><path d="M99.114 262.16c0 1.043-.866 1.902-1.922 1.902a1.91 1.91 0 0 1-1.899-1.902c0-1.075.858-1.91 1.9-1.91 1.055 0 1.921.835 1.921 1.91" fill="#33FBA3" opacity=".542"/><path d="M99.049 262.16c0 1.007-.837 1.837-1.856 1.837a1.845 1.845 0 0 1-1.834-1.837c0-1.04.829-1.845 1.834-1.845 1.019 0 1.856.806 1.856 1.845" fill="#33FBA3" opacity=".542"/><path d="M98.983 262.16c0 .97-.806 1.77-1.79 1.77a1.78 1.78 0 0 1-1.769-1.77c0-1.002.8-1.78 1.768-1.78.985 0 1.79.778 1.79 1.78" fill="#33FBA3" opacity=".542"/><path d="M98.917 262.16c0 .934-.776 1.705-1.725 1.705-.93 0-1.703-.771-1.703-1.705 0-.966.773-1.713 1.703-1.713.949 0 1.725.747 1.725 1.713" fill="#33FBA3" opacity=".542"/><path d="M98.852 262.16c0 .897-.746 1.64-1.66 1.64a1.65 1.65 0 0 1-1.636-1.64c0-.93.743-1.647 1.637-1.647.913 0 1.659.717 1.659 1.647" fill="#33FBA3" opacity=".542"/><path d="M98.786 262.16c0 .86-.717 1.574-1.594 1.574a1.586 1.586 0 0 1-1.57-1.574 1.57 1.57 0 0 1 1.57-1.582c.877 0 1.594.689 1.594 1.582" fill="#33FBA3" opacity=".542"/><path d="M98.72 262.16c0 .823-.687 1.508-1.527 1.508a1.52 1.52 0 0 1-1.506-1.508c0-.856.685-1.517 1.506-1.517.84 0 1.527.66 1.527 1.517" fill="#33FBA3" opacity=".542"/><path d="M98.654 262.16a1.46 1.46 0 0 1-1.462 1.443 1.455 1.455 0 0 1-1.439-1.443c0-.82.656-1.451 1.44-1.451.804 0 1.461.63 1.461 1.45" fill="#33FBA3" opacity=".542"/><path d="M98.589 262.16c0 .75-.627 1.377-1.396 1.377a1.39 1.39 0 0 1-1.375-1.377c0-.784.628-1.386 1.375-1.386a1.38 1.38 0 0 1 1.396 1.386" fill="#33FBA3" opacity=".542"/><path d="M98.522 262.16c0 .714-.596 1.312-1.33 1.312a1.327 1.327 0 0 1-1.308-1.312c0-.747.6-1.32 1.308-1.32.735 0 1.33.573 1.33 1.32" fill="#33FBA3" opacity=".542"/><path d="M98.456 262.16c0 .678-.565 1.246-1.264 1.246a1.26 1.26 0 0 1-1.243-1.246c0-.711.571-1.254 1.243-1.254.7 0 1.264.543 1.264 1.254" fill="#33FBA3" opacity=".542"/><path d="M98.392 262.16c0 .64-.537 1.18-1.2 1.18a1.196 1.196 0 0 1-1.177-1.18 1.18 1.18 0 0 1 1.178-1.188c.662 0 1.199.513 1.199 1.188" fill="#33FBA3" opacity=".542"/><path d="M98.325 262.16a1.13 1.13 0 0 1-1.133 1.114c-.598 0-1.112-.51-1.112-1.114 0-.64.514-1.123 1.112-1.123.627 0 1.133.484 1.133 1.123" fill="#33FBA3" opacity=".542"/><path d="M98.26 262.16c0 .567-.477 1.049-1.067 1.049a1.067 1.067 0 0 1-1.047-1.05c0-.601.485-1.057 1.047-1.057.59 0 1.067.456 1.067 1.058" fill="#33FBA3" opacity=".542"/><path d="M98.194 262.16a1 1 0 0 1-1.002.983 1 1 0 0 1-.98-.983c0-.565.456-.991.98-.991a.984.984 0 0 1 1.002.99" fill="#33FBA3" opacity=".542"/><path d="M98.128 262.16a.933.933 0 0 1-.936.917.936.936 0 0 1-.915-.917.92.92 0 0 1 .915-.926c.52 0 .936.397.936.926" fill="#33FBA3" opacity=".542"/><path d="M98.063 262.16a.868.868 0 0 1-.87.852.872.872 0 0 1-.85-.852c0-.492.398-.86.85-.86.483 0 .87.368.87.86" fill="#33FBA3" opacity=".542"/><path d="M97.997 262.16a.8.8 0 0 1-.805.786.806.806 0 0 1-.784-.786.79.79 0 0 1 .784-.795c.45 0 .805.339.805.795" fill="#33FBA3" opacity=".542"/><path d="M97.93 262.16a.735.735 0 0 1-.737.72.742.742 0 0 1-.72-.72c0-.42.343-.73.72-.73a.72.72 0 0 1 .738.73" fill="#33FBA3" opacity=".542"/><path d="M97.865 262.16a.669.669 0 0 1-.673.654.674.674 0 0 1-.652-.654.66.66 0 0 1 .652-.664c.376 0 .673.28.673.664" fill="#33FBA3" opacity=".542"/><path d="M97.8 262.16a.604.604 0 0 1-.607.589.61.61 0 0 1-.587-.59c0-.346.283-.597.587-.597a.59.59 0 0 1 .607.598" fill="#33FBA3" opacity=".542"/><path d="M97.733 262.16a.537.537 0 0 1-.54.523.546.546 0 0 1-.522-.523.53.53 0 0 1 .521-.532c.305 0 .541.222.541.532m588.412 10.194c0-1.043.89-1.899 1.92-1.899 1.057 0 1.924.856 1.924 1.9a1.92 1.92 0 0 1-1.923 1.908c-1.031 0-1.921-.855-1.921-1.909" fill="#33FBA3" opacity=".542"/><path d="M686.21 272.354c0-1.008.859-1.834 1.856-1.834 1.02 0 1.857.826 1.857 1.834a1.854 1.854 0 0 1-1.857 1.844c-.997 0-1.856-.826-1.856-1.844" fill="#33FBA3" opacity=".542"/><path d="M686.276 272.354c0-.972.828-1.768 1.79-1.768.983 0 1.791.796 1.791 1.768 0 .983-.808 1.778-1.792 1.778-.96 0-1.789-.795-1.789-1.778" fill="#33FBA3" opacity=".542"/><path d="M686.342 272.354c0-.936.797-1.703 1.724-1.703.948 0 1.725.767 1.725 1.703 0 .947-.777 1.713-1.725 1.713-.927 0-1.724-.766-1.724-1.713" fill="#33FBA3" opacity=".542"/><path d="M686.407 272.354c0-.9.767-1.637 1.658-1.637.912 0 1.66.736 1.66 1.637 0 .912-.748 1.647-1.66 1.647-.89 0-1.658-.735-1.658-1.647" fill="#33FBA3" opacity=".542"/><path d="M686.473 272.354c0-.866.736-1.57 1.593-1.57.876 0 1.595.704 1.595 1.57a1.59 1.59 0 0 1-1.595 1.582c-.857 0-1.593-.705-1.593-1.582" fill="#33FBA3" opacity=".542"/><path d="M686.538 272.354c0-.83.705-1.506 1.527-1.506.84 0 1.53.675 1.53 1.506 0 .842-.69 1.516-1.53 1.516-.822 0-1.527-.674-1.527-1.516" fill="#33FBA3" opacity=".542"/><path d="M686.605 272.354c0-.795.673-1.44 1.46-1.44.804 0 1.463.645 1.463 1.44 0 .807-.659 1.45-1.462 1.45a1.464 1.464 0 0 1-1.462-1.45" fill="#33FBA3" opacity=".542"/><path d="M686.67 272.354c0-.76.643-1.375 1.396-1.375.767 0 1.397.615 1.397 1.375a1.39 1.39 0 0 1-1.397 1.385 1.398 1.398 0 0 1-1.396-1.385" fill="#33FBA3" opacity=".542"/><path d="M686.735 272.354c0-.725.613-1.31 1.33-1.31.733 0 1.332.585 1.332 1.31 0 .735-.599 1.32-1.332 1.32-.717 0-1.33-.585-1.33-1.32" fill="#33FBA3" opacity=".542"/><path d="M686.802 272.354c0-.689.582-1.243 1.264-1.243.695 0 1.265.554 1.265 1.243 0 .7-.57 1.254-1.265 1.254a1.265 1.265 0 0 1-1.264-1.254" fill="#33FBA3" opacity=".542"/><path d="M686.866 272.354c0-.653.553-1.178 1.2-1.178.66 0 1.2.525 1.2 1.178 0 .665-.54 1.19-1.2 1.19a1.199 1.199 0 0 1-1.2-1.19" fill="#33FBA3" opacity=".542"/><path d="M686.933 272.354c0-.618.52-1.112 1.133-1.112.623 0 1.135.494 1.135 1.112 0 .63-.512 1.123-1.135 1.123a1.13 1.13 0 0 1-1.133-1.123" fill="#33FBA3" opacity=".542"/><path d="M686.998 272.354c0-.583.49-1.047 1.067-1.047.588 0 1.07.464 1.07 1.047a1.06 1.06 0 0 1-1.07 1.058 1.063 1.063 0 0 1-1.067-1.058" fill="#33FBA3" opacity=".542"/><path d="M687.063 272.354c0-.548.46-.98 1.003-.98a.99.99 0 0 1 1.003.98.993.993 0 0 1-1.003.992.997.997 0 0 1-1.003-.992" fill="#33FBA3" opacity=".542"/><path d="M687.13 272.354c0-.512.428-.915.936-.915.515 0 .937.403.937.915a.926.926 0 0 1-.937.926.93.93 0 0 1-.936-.926" fill="#33FBA3" opacity=".542"/><path d="M687.195 272.354a.86.86 0 0 1 .87-.85c.48 0 .873.373.873.85a.86.86 0 0 1-.873.86.861.861 0 0 1-.87-.86" fill="#33FBA3" opacity=".542"/><path d="M687.26 272.354c0-.44.368-.784.806-.784.443 0 .806.343.806.784a.793.793 0 0 1-.806.795.795.795 0 0 1-.805-.795" fill="#33FBA3" opacity=".542"/><path d="M687.326 272.354c0-.406.337-.719.74-.719.407 0 .741.313.741.72a.727.727 0 0 1-.742.728.728.728 0 0 1-.739-.729" fill="#33FBA3" opacity=".542"/><path d="M687.393 272.354a.66.66 0 0 1 .673-.652.66.66 0 0 1 .676.652.662.662 0 0 1-.676.664.662.662 0 0 1-.673-.664" fill="#33FBA3" opacity=".542"/><path d="M687.457 272.354c0-.335.276-.587.608-.587a.593.593 0 1 1 0 1.186.596.596 0 0 1-.608-.599" fill="#33FBA3" opacity=".542"/><path d="M687.524 272.354c0-.3.244-.52.542-.52.298 0 .543.22.543.52a.53.53 0 0 1-.543.533.528.528 0 0 1-.543-.533m-444.679-17.676c0-1.066.847-1.9 1.909-1.9 1.05 0 1.922.834 1.922 1.9 0 1.056-.871 1.887-1.922 1.887-1.062 0-1.91-.83-1.91-1.887" fill="#33FBA3" opacity=".542"/><path d="M242.91 254.678c0-1.03.816-1.834 1.843-1.834a1.84 1.84 0 0 1 1.855 1.834c0 1.02-.84 1.822-1.855 1.822-1.027 0-1.844-.803-1.844-1.822" fill="#33FBA3" opacity=".542"/><path d="M242.975 254.678c0-.994.789-1.768 1.778-1.768.979 0 1.79.774 1.79 1.768 0 .983-.811 1.757-1.79 1.757a1.756 1.756 0 0 1-1.778-1.757" fill="#33FBA3" opacity=".542"/><path d="M243.04 254.678c0-.96.76-1.703 1.713-1.703.942 0 1.724.744 1.724 1.703 0 .946-.782 1.692-1.724 1.692a1.692 1.692 0 0 1-1.713-1.692" fill="#33FBA3" opacity=".542"/><path d="M243.106 254.678c0-.923.732-1.637 1.647-1.637.907 0 1.66.714 1.66 1.637 0 .91-.754 1.629-1.66 1.629a1.628 1.628 0 0 1-1.647-1.63" fill="#33FBA3" opacity=".542"/><path d="M243.17 254.678a1.56 1.56 0 0 1 1.583-1.571c.87 0 1.594.684 1.594 1.57 0 .874-.724 1.564-1.594 1.564-.88 0-1.582-.69-1.582-1.563" fill="#33FBA3" opacity=".542"/><path d="M243.235 254.678c0-.851.675-1.506 1.518-1.506.834 0 1.528.655 1.528 1.506 0 .837-.694 1.5-1.528 1.5a1.5 1.5 0 0 1-1.518-1.5" fill="#33FBA3" opacity=".542"/><path d="M243.302 254.678c0-.815.645-1.44 1.45-1.44.799 0 1.464.625 1.464 1.44 0 .8-.665 1.435-1.463 1.435a1.436 1.436 0 0 1-1.451-1.435" fill="#33FBA3" opacity=".542"/><path d="M243.366 254.678c0-.78.617-1.374 1.387-1.374.761 0 1.396.595 1.396 1.374 0 .762-.635 1.37-1.396 1.37-.77 0-1.387-.608-1.387-1.37" fill="#33FBA3" opacity=".542"/><path d="M243.432 254.678a1.3 1.3 0 0 1 1.32-1.31c.726 0 1.332.567 1.332 1.31 0 .727-.606 1.306-1.331 1.306-.733 0-1.321-.58-1.321-1.306" fill="#33FBA3" opacity=".542"/><path d="M243.497 254.678c0-.708.56-1.243 1.256-1.243.69 0 1.265.535 1.265 1.243 0 .689-.576 1.242-1.265 1.242a1.245 1.245 0 0 1-1.256-1.242" fill="#33FBA3" opacity=".542"/><path d="M243.563 254.678c0-.672.53-1.178 1.19-1.178.653 0 1.2.506 1.2 1.178 0 .653-.548 1.178-1.2 1.178a1.18 1.18 0 0 1-1.19-1.178" fill="#33FBA3" opacity=".542"/><path d="M243.628 254.678c0-.636.501-1.113 1.125-1.113.617 0 1.135.477 1.135 1.113 0 .615-.518 1.113-1.135 1.113a1.117 1.117 0 0 1-1.125-1.113" fill="#33FBA3" opacity=".542"/><path d="M243.693 254.678c0-.6.472-1.047 1.06-1.047.58 0 1.068.446 1.068 1.047 0 .58-.488 1.048-1.068 1.048-.588 0-1.06-.469-1.06-1.048" fill="#33FBA3" opacity=".542"/><path d="M243.759 254.678c0-.565.443-.98.994-.98.545 0 1.003.415 1.003.98a1 1 0 0 1-1.003.983.988.988 0 0 1-.994-.983" fill="#33FBA3" opacity=".542"/><path d="M243.823 254.678c0-.528.415-.916.93-.916.507 0 .937.388.937.916 0 .506-.43.92-.937.92a.926.926 0 0 1-.93-.92" fill="#33FBA3" opacity=".542"/><path d="M243.889 254.678c0-.492.387-.85.864-.85.472 0 .872.358.872.85 0 .47-.4.855-.872.855a.861.861 0 0 1-.864-.855" fill="#33FBA3" opacity=".542"/><path d="M243.954 254.678c0-.456.357-.785.8-.785.434 0 .805.33.805.785a.808.808 0 0 1-.806.79.797.797 0 0 1-.799-.79" fill="#33FBA3" opacity=".542"/><path d="M244.02 254.678c0-.42.329-.72.733-.72.4 0 .74.3.74.72a.744.744 0 0 1-.74.727.733.733 0 0 1-.732-.727" fill="#33FBA3" opacity=".542"/><path d="M244.085 254.678c0-.383.3-.653.668-.653.363 0 .675.27.675.653a.68.68 0 0 1-.675.661.67.67 0 0 1-.668-.661" fill="#33FBA3" opacity=".542"/><path d="M244.15 254.678c0-.349.271-.588.603-.588.328 0 .61.24.61.588a.614.614 0 0 1-.61.597.606.606 0 0 1-.603-.597" fill="#33FBA3" opacity=".542"/><path d="M244.216 254.678c0-.311.242-.523.537-.523.29 0 .544.212.544.523a.55.55 0 0 1-.544.532.542.542 0 0 1-.537-.532M39.675 155.517a1.92 1.92 0 0 1-1.923 1.91 1.907 1.907 0 0 1-1.905-1.91c0-1.046.852-1.91 1.905-1.91 1.056 0 1.923.864 1.923 1.91" fill="#33FBA3" opacity=".542"/><path d="M39.608 155.517c0 1.02-.837 1.845-1.856 1.845a1.846 1.846 0 0 1 0-3.69 1.86 1.86 0 0 1 1.856 1.845" fill="#33FBA3" opacity=".542"/><path d="M39.543 155.517c0 .984-.808 1.78-1.791 1.78a1.78 1.78 0 0 1 0-3.558c.983 0 1.791.803 1.791 1.778" fill="#33FBA3" opacity=".542"/><path d="M39.477 155.517c0 .948-.776 1.714-1.725 1.714a1.715 1.715 0 0 1 0-3.427c.949 0 1.725.774 1.725 1.713" fill="#33FBA3" opacity=".542"/><path d="M39.411 155.517c0 .913-.747 1.648-1.659 1.648a1.648 1.648 0 0 1 0-3.296 1.66 1.66 0 0 1 1.66 1.648" fill="#33FBA3" opacity=".542"/><path d="M39.345 155.517c0 .878-.717 1.582-1.593 1.582a1.574 1.574 0 0 1-1.575-1.582c0-.868.702-1.583 1.575-1.583.876 0 1.593.715 1.593 1.583" fill="#33FBA3" opacity=".542"/><path d="M39.28 155.517c0 .843-.688 1.518-1.528 1.518a1.51 1.51 0 0 1-1.51-1.518c0-.832.673-1.518 1.51-1.518.84 0 1.527.686 1.527 1.518" fill="#33FBA3" opacity=".542"/><path d="M39.214 155.517c0 .808-.658 1.451-1.462 1.451a1.44 1.44 0 0 1-1.443-1.45c0-.798.642-1.452 1.443-1.452.804 0 1.462.654 1.462 1.451" fill="#33FBA3" opacity=".542"/><path d="M39.148 155.517a1.39 1.39 0 0 1-1.396 1.386 1.375 1.375 0 0 1-1.378-1.386c0-.762.612-1.386 1.378-1.386.768 0 1.395.624 1.395 1.386" fill="#33FBA3" opacity=".542"/><path d="M39.081 155.517c0 .736-.597 1.32-1.329 1.32-.73 0-1.312-.584-1.312-1.32 0-.726.582-1.32 1.312-1.32.732 0 1.33.594 1.33 1.32" fill="#33FBA3" opacity=".542"/><path d="M39.016 155.517c0 .701-.567 1.255-1.264 1.255a1.242 1.242 0 0 1-1.246-1.255c0-.69.553-1.255 1.246-1.255.697 0 1.264.565 1.264 1.255" fill="#33FBA3" opacity=".542"/><path d="M38.95 155.517c0 .666-.537 1.19-1.198 1.19-.657 0-1.18-.524-1.18-1.19 0-.655.523-1.189 1.18-1.189.661 0 1.198.534 1.198 1.19" fill="#33FBA3" opacity=".542"/><path d="M38.884 155.517c0 .631-.507 1.124-1.132 1.124a1.108 1.108 0 0 1-1.114-1.124c0-.619.492-1.124 1.114-1.124a1.13 1.13 0 0 1 1.132 1.124" fill="#33FBA3" opacity=".542"/><path d="M38.817 155.517c0 .596-.477 1.06-1.065 1.06a1.042 1.042 0 0 1-1.048-1.06 1.05 1.05 0 0 1 1.048-1.059c.588 0 1.065.475 1.065 1.06" fill="#33FBA3" opacity=".542"/><path d="M38.752 155.517c0 .56-.447.993-1 .993a.975.975 0 0 1-.982-.993c0-.549.432-.993.982-.993.553 0 1 .444 1 .993" fill="#33FBA3" opacity=".542"/><path d="M38.687 155.517a.924.924 0 0 1-.935.928.91.91 0 0 1-.916-.928c0-.513.403-.928.916-.928a.93.93 0 0 1 .935.928" fill="#33FBA3" opacity=".542"/><path d="M38.62 155.517a.855.855 0 0 1-.868.861.843.843 0 0 1-.85-.86.85.85 0 0 1 .85-.863c.481 0 .868.384.868.862" fill="#33FBA3" opacity=".542"/><path d="M38.555 155.517a.789.789 0 0 1-.803.796.776.776 0 0 1-.784-.796c0-.44.343-.797.784-.797.446 0 .803.356.803.797" fill="#33FBA3" opacity=".542"/><path d="M38.488 155.517c0 .418-.327.73-.736.73a.71.71 0 0 1-.719-.73c0-.406.313-.73.72-.73a.73.73 0 0 1 .735.73" fill="#33FBA3" opacity=".542"/><path d="M38.423 155.517a.657.657 0 0 1-.671.665.643.643 0 0 1-.652-.665.65.65 0 0 1 .652-.665c.373 0 .67.294.67.665" fill="#33FBA3" opacity=".542"/><path d="M38.356 155.517a.59.59 0 0 1-.604.6.577.577 0 0 1-.586-.6c0-.335.253-.6.587-.6.337 0 .603.265.603.6" fill="#33FBA3" opacity=".542"/><path d="M38.291 155.517a.523.523 0 0 1-.539.534.511.511 0 0 1-.52-.534c0-.3.222-.534.52-.534a.53.53 0 0 1 .54.534m349.35 123.333c0 1.044-.855 1.92-1.901 1.92a1.934 1.934 0 0 1-1.918-1.92c0-1.065.867-1.92 1.918-1.92a1.91 1.91 0 0 1 1.9 1.92" fill="#33FBA3" opacity=".542"/><path d="M387.576 278.85c0 1.008-.826 1.853-1.836 1.853a1.868 1.868 0 0 1-1.853-1.854c0-1.027.837-1.854 1.853-1.854 1.01 0 1.836.827 1.836 1.854" fill="#33FBA3" opacity=".542"/><path d="M387.51 278.85c0 .972-.794 1.788-1.77 1.788-.98 0-1.787-.816-1.787-1.789 0-.99.807-1.787 1.787-1.787.976 0 1.77.797 1.77 1.787" fill="#33FBA3" opacity=".542"/><path d="M387.444 278.85c0 .936-.765 1.723-1.704 1.723a1.737 1.737 0 0 1-1.722-1.724c0-.954.777-1.722 1.722-1.722.94 0 1.704.768 1.704 1.722" fill="#33FBA3" opacity=".542"/><path d="M387.38 278.85c0 .9-.735 1.657-1.64 1.657a1.67 1.67 0 0 1-1.657-1.658c0-.918.747-1.656 1.657-1.656.905 0 1.64.738 1.64 1.656" fill="#33FBA3" opacity=".542"/><path d="M387.313 278.85c0 .864-.703 1.591-1.572 1.591a1.605 1.605 0 0 1-1.594-1.592c0-.882.72-1.59 1.594-1.59a1.58 1.58 0 0 1 1.572 1.59" fill="#33FBA3" opacity=".542"/><path d="M387.25 278.85c0 .828-.677 1.526-1.51 1.526a1.538 1.538 0 0 1-1.526-1.527c0-.846.687-1.525 1.526-1.525.833 0 1.51.68 1.51 1.525" fill="#33FBA3" opacity=".542"/><path d="M387.183 278.85c0 .792-.645 1.46-1.442 1.46a1.473 1.473 0 0 1-1.462-1.46c0-.81.658-1.46 1.462-1.46.797 0 1.442.65 1.442 1.46" fill="#33FBA3" opacity=".542"/><path d="M387.117 278.85c0 .757-.614 1.395-1.377 1.395a1.406 1.406 0 0 1-1.396-1.396c0-.773.628-1.395 1.396-1.395.763 0 1.377.622 1.377 1.395" fill="#33FBA3" opacity=".542"/><path d="M387.052 278.85c0 .721-.584 1.33-1.311 1.33a1.34 1.34 0 0 1-1.332-1.33 1.33 1.33 0 0 1 1.332-1.329c.727 0 1.31.592 1.31 1.328" fill="#33FBA3" opacity=".542"/><path d="M386.985 278.85c0 .684-.553 1.265-1.245 1.265a1.277 1.277 0 0 1-1.267-1.266c0-.699.57-1.263 1.267-1.263a1.25 1.25 0 0 1 1.245 1.263" fill="#33FBA3" opacity=".542"/><path d="M386.92 278.85c0 .648-.523 1.198-1.18 1.198-.663 0-1.2-.55-1.2-1.199 0-.663.537-1.197 1.2-1.197.657 0 1.18.534 1.18 1.197" fill="#33FBA3" opacity=".542"/><path d="M386.854 278.85c0 .612-.493 1.134-1.113 1.134a1.144 1.144 0 0 1-1.137-1.135c0-.627.509-1.132 1.137-1.132.62 0 1.113.505 1.113 1.132" fill="#33FBA3" opacity=".542"/><path d="M386.79 278.85c0 .577-.464 1.067-1.05 1.067a1.066 1.066 0 1 1 0-2.134c.586 0 1.05.475 1.05 1.066" fill="#33FBA3" opacity=".542"/><path d="M386.724 278.85a.997.997 0 0 1-.983 1.002 1.01 1.01 0 0 1-1.005-1.003c0-.555.447-1 1.005-1 .549 0 .983.445.983 1" fill="#33FBA3" opacity=".542"/><path d="M386.658 278.85a.93.93 0 0 1-.918.936.944.944 0 0 1-.94-.937c0-.518.418-.935.94-.935a.92.92 0 0 1 .918.935" fill="#33FBA3" opacity=".542"/><path d="M386.593 278.85c0 .47-.373.871-.853.871a.88.88 0 0 1-.875-.872c0-.482.389-.869.875-.869.48 0 .853.387.853.87" fill="#33FBA3" opacity=".542"/><path d="M386.527 278.85a.799.799 0 0 1-.787.806.814.814 0 0 1-.81-.807c0-.445.36-.804.81-.804a.79.79 0 0 1 .787.804" fill="#33FBA3" opacity=".542"/><path d="M386.461 278.85a.73.73 0 0 1-.721.74.746.746 0 0 1-.744-.74c0-.41.327-.738.744-.738a.72.72 0 0 1 .721.737" fill="#33FBA3" opacity=".542"/><path d="M386.396 278.85a.665.665 0 0 1-.655.675.68.68 0 0 1-.68-.676c0-.372.299-.672.68-.672.374 0 .655.3.655.672" fill="#33FBA3" opacity=".542"/><path d="M386.33 278.85a.6.6 0 0 1-.59.61.614.614 0 0 1-.613-.61c0-.337.267-.608.613-.608a.59.59 0 0 1 .59.607" fill="#33FBA3" opacity=".542"/><path d="M386.265 278.85c0 .29-.222.544-.524.544a.549.549 0 0 1-.55-.545c0-.3.239-.54.55-.54.302 0 .524.24.524.54M3.804 167.377c0 1.045-.856 1.934-1.92 1.934-1.037 0-1.894-.89-1.894-1.934 0-1.055.857-1.92 1.895-1.92a1.92 1.92 0 0 1 1.919 1.92" fill="#33FBA3" opacity=".542"/><path d="M3.738 167.377c0 1.009-.827 1.867-1.854 1.867-1.002 0-1.83-.858-1.83-1.867 0-1.018.828-1.854 1.83-1.854 1.027 0 1.854.836 1.854 1.854" fill="#33FBA3" opacity=".542"/><path d="M3.673 167.377c0 .974-.797 1.8-1.788 1.8-.967 0-1.766-.826-1.766-1.8 0-.981.799-1.79 1.766-1.79.99 0 1.788.809 1.788 1.79" fill="#33FBA3" opacity=".542"/><path d="M3.607 167.377c0 .939-.768 1.733-1.723 1.733-.93 0-1.7-.794-1.7-1.733 0-.945.77-1.725 1.7-1.725.955 0 1.724.78 1.724 1.725" fill="#33FBA3" opacity=".542"/><path d="M3.542 167.377a1.67 1.67 0 0 1-1.657 1.667c-.896 0-1.635-.764-1.635-1.667 0-.908.739-1.66 1.635-1.66.919 0 1.657.752 1.657 1.66" fill="#33FBA3" opacity=".542"/><path d="M3.478 167.377c0 .867-.71 1.6-1.593 1.6-.86 0-1.57-.733-1.57-1.6 0-.872.71-1.596 1.57-1.596.883 0 1.593.724 1.593 1.596" fill="#33FBA3" opacity=".542"/><path d="M3.412 167.377c0 .832-.68 1.533-1.527 1.533-.824 0-1.504-.701-1.504-1.533 0-.836.68-1.53 1.504-1.53.847 0 1.527.694 1.527 1.53" fill="#33FBA3" opacity=".542"/><path d="M3.347 167.377a1.47 1.47 0 0 1-1.462 1.467c-.788 0-1.438-.67-1.438-1.467 0-.8.65-1.466 1.438-1.466.812 0 1.462.667 1.462 1.466" fill="#33FBA3" opacity=".542"/><path d="M3.281 167.377c0 .762-.62 1.4-1.396 1.4-.753 0-1.375-.638-1.375-1.4 0-.762.622-1.4 1.375-1.4.775 0 1.396.638 1.396 1.4" fill="#33FBA3" opacity=".542"/><path d="M3.216 167.377c0 .726-.591 1.333-1.331 1.333-.717 0-1.31-.607-1.31-1.333 0-.725.593-1.336 1.31-1.336.74 0 1.33.61 1.33 1.336" fill="#33FBA3" opacity=".542"/><path d="M3.15 167.377c0 .69-.56 1.267-1.266 1.267-.68 0-1.243-.577-1.243-1.267s.563-1.271 1.243-1.271c.705 0 1.266.582 1.266 1.27" fill="#33FBA3" opacity=".542"/><path d="M3.085 167.377c0 .654-.532 1.2-1.2 1.2-.646 0-1.178-.546-1.178-1.2 0-.652.532-1.205 1.178-1.205.668 0 1.2.553 1.2 1.205" fill="#33FBA3" opacity=".542"/><path d="M3.02 167.377c0 .619-.503 1.133-1.135 1.133-.61 0-1.112-.514-1.112-1.133 0-.616.503-1.141 1.112-1.141.632 0 1.135.525 1.135 1.14" fill="#33FBA3" opacity=".542"/><path d="M2.954 167.377c0 .584-.473 1.066-1.069 1.066a1.063 1.063 0 0 1-1.048-1.066c0-.58.474-1.076 1.048-1.076.596 0 1.07.496 1.07 1.076" fill="#33FBA3" opacity=".542"/><path d="M2.889 167.377a1 1 0 0 1-1.004 1 .996.996 0 0 1-.982-1c0-.543.444-1.011.982-1.011.56 0 1.004.468 1.004 1.01" fill="#33FBA3" opacity=".542"/><path d="M2.823 167.377a.933.933 0 0 1-.938.934.929.929 0 0 1-.917-.934c0-.507.414-.946.917-.946.524 0 .938.439.938.946" fill="#33FBA3" opacity=".542"/><path d="M2.759 167.377a.862.862 0 1 1-1.726 0c0-.47.385-.881.852-.881.489 0 .874.41.874.88" fill="#33FBA3" opacity=".542"/><path d="M2.692 167.377a.8.8 0 0 1-.808.8.796.796 0 0 1-.786-.8c0-.434.356-.816.786-.816.453 0 .808.382.808.816" fill="#33FBA3" opacity=".542"/><path d="M2.628 167.377a.732.732 0 1 1-1.465 0c0-.396.326-.751.722-.751.417 0 .743.355.743.75" fill="#33FBA3" opacity=".542"/><path d="M2.563 167.377a.667.667 0 0 1-.679.667.662.662 0 0 1-.655-.667c0-.36.296-.686.655-.686a.69.69 0 0 1 .679.686" fill="#33FBA3" opacity=".542"/><path d="M2.497 167.377c0 .336-.267.6-.612.6a.594.594 0 0 1-.59-.6c0-.324.265-.621.59-.621.345 0 .612.297.612.62" fill="#33FBA3" opacity=".542"/><path d="M2.432 167.377a.531.531 0 0 1-.547.533.526.526 0 0 1-.525-.533c0-.287.237-.557.525-.557.31 0 .547.27.547.557m35.657 61.193c0 2.768-2.262 5.02-5.012 5.02a5.024 5.024 0 0 1-5.025-5.02c0-2.764 2.248-5.006 5.025-5.006 2.75 0 5.012 2.242 5.012 5.005" fill="#33FBA3" opacity=".542"/><path d="M37.917 228.57c0 2.674-2.184 4.848-4.84 4.848a4.852 4.852 0 0 1-4.852-4.849c0-2.667 2.171-4.833 4.852-4.833 2.656 0 4.84 2.166 4.84 4.833" fill="#33FBA3" opacity=".542"/><path d="M37.745 228.57c0 2.58-2.105 4.677-4.668 4.677a4.68 4.68 0 0 1-4.68-4.678c0-2.572 2.093-4.66 4.68-4.66 2.563 0 4.668 2.088 4.668 4.66" fill="#33FBA3" opacity=".542"/><path d="M37.572 228.57c0 2.485-2.026 4.505-4.495 4.505a4.507 4.507 0 0 1-4.508-4.506c0-2.477 2.016-4.489 4.508-4.489a4.502 4.502 0 0 1 4.495 4.49" fill="#33FBA3" opacity=".542"/><path d="M37.401 228.57c0 2.391-1.949 4.334-4.324 4.334a4.335 4.335 0 0 1-4.336-4.335c0-2.382 1.94-4.317 4.336-4.317 2.375 0 4.324 1.935 4.324 4.317" fill="#33FBA3" opacity=".542"/><path d="M37.23 228.57a4.166 4.166 0 0 1-4.152 4.162 4.163 4.163 0 0 1-4.164-4.163 4.156 4.156 0 0 1 4.163-4.146c2.282 0 4.153 1.86 4.153 4.146" fill="#33FBA3" opacity=".542"/><path d="M37.057 228.57a3.993 3.993 0 0 1-3.98 3.991 3.99 3.99 0 0 1-3.99-3.992 3.984 3.984 0 0 1 3.99-3.974 3.986 3.986 0 0 1 3.98 3.974" fill="#33FBA3" opacity=".542"/><path d="M36.885 228.57a3.82 3.82 0 0 1-3.808 3.82 3.818 3.818 0 0 1-3.818-3.82 3.814 3.814 0 0 1 7.626 0" fill="#33FBA3" opacity=".542"/><path d="M36.713 228.57a3.648 3.648 0 0 1-3.636 3.648 3.646 3.646 0 0 1-3.645-3.649 3.641 3.641 0 0 1 7.281 0" fill="#33FBA3" opacity=".542"/><path d="M36.54 228.57a3.475 3.475 0 0 1-3.463 3.477 3.474 3.474 0 0 1-3.473-3.478 3.468 3.468 0 0 1 6.936 0" fill="#33FBA3" opacity=".542"/><path d="M36.368 228.57a3.301 3.301 0 0 1-3.29 3.305 3.302 3.302 0 0 1-3.302-3.306 3.296 3.296 0 0 1 6.592 0" fill="#33FBA3" opacity=".542"/><path d="M36.196 228.57c0 1.731-1.4 3.134-3.119 3.134a3.13 3.13 0 0 1-3.128-3.135 3.123 3.123 0 0 1 6.247 0" fill="#33FBA3" opacity=".542"/><path d="M36.025 228.57a2.957 2.957 0 0 1-2.947 2.963 2.957 2.957 0 0 1-2.956-2.964 2.951 2.951 0 0 1 5.903 0" fill="#33FBA3" opacity=".542"/><path d="M35.853 228.57a2.784 2.784 0 0 1-2.775 2.791 2.781 2.781 0 1 1 0-5.563 2.78 2.78 0 0 1 2.775 2.771" fill="#33FBA3" opacity=".542"/><path d="M35.68 228.57a2.612 2.612 0 0 1-2.603 2.62 2.614 2.614 0 0 1-2.611-2.62 2.608 2.608 0 0 1 5.215 0" fill="#33FBA3" opacity=".542"/><path d="M35.509 228.57a2.44 2.44 0 0 1-2.432 2.448 2.44 2.44 0 0 1-2.437-2.449 2.435 2.435 0 0 1 4.869 0" fill="#33FBA3" opacity=".542"/><path d="M35.337 228.57a2.266 2.266 0 0 1-2.26 2.276 2.267 2.267 0 0 1-2.265-2.277 2.262 2.262 0 1 1 4.525 0" fill="#33FBA3" opacity=".542"/><path d="M35.165 228.57a2.094 2.094 0 0 1-2.088 2.106 2.097 2.097 0 0 1-2.094-2.107c0-1.143.936-2.083 2.094-2.083a2.09 2.09 0 0 1 2.088 2.083" fill="#33FBA3" opacity=".542"/><path d="M34.992 228.57a1.92 1.92 0 0 1-1.915 1.934 1.923 1.923 0 0 1 0-3.846c1.061 0 1.915.864 1.915 1.911" fill="#33FBA3" opacity=".542"/><path d="M34.82 228.57c0 .977-.775 1.763-1.743 1.763a1.752 1.752 0 0 1 0-3.503c.968 0 1.743.788 1.743 1.74" fill="#33FBA3" opacity=".542"/><path d="M34.648 228.57c0 .884-.697 1.591-1.57 1.591a1.58 1.58 0 0 1 0-3.159c.873 0 1.57.711 1.57 1.567" fill="#33FBA3" opacity=".542"/><path d="M34.477 228.57c0 .79-.62 1.42-1.4 1.42a1.408 1.408 0 0 1-1.403-1.42c0-.762.626-1.397 1.404-1.397a1.4 1.4 0 0 1 1.399 1.396" fill="#33FBA3" opacity=".542"/><path fill="#065F68" opacity=".333" d="M168 177l-57 133.5 48.5 34.5L187 237.5z"/><path fill="#024C5D" opacity=".764" d="M505 295l3 93 45 52.5 20.5-64z"/></g></svg>