<svg id="图层_1" xmlns="http://www.w3.org/2000/svg" viewBox="654 83.2 1920 693.8"><style>.st0{opacity:.7228;fill:none;stroke:#0d402d;enable-background:new}.st1{fill:none;stroke:#05383e}.st2,.st3{fill:none;stroke:#78d951}.st3{opacity:.4778;stroke:#979797;enable-background:new}.st4,.st5{fill:none;stroke:#0b3530}.st5{stroke:#959978}.st6,.st7{fill:none;stroke:#00f58e}.st7{opacity:.3854;stroke:#054955;enable-background:new}.st8{fill:none;stroke:#979797}</style><title>Group 34</title><path id="Path-49-Copy-5" class="st0" d="M2095.8 209.8l55.8-59.4 37.8 52z"/><path id="Path-49-Copy-3" class="st1" d="M1014.9 201.5l-23.8 14.9-1.6-29.4z"/><path id="Path-49-Copy-6" class="st2" d="M1011.9 195.5l-23.8 14.9-1.6-29.4z"/><path id="Path-49-Copy-4" class="st3" d="M738.2 83.2L661 177.7 599 104z"/><path id="Path-49-Copy" class="st4" d="M2403.3 365.2l-12.6-25.2 28.4-1z"/><path id="Path-49-Copy-8" class="st5" d="M2398.3 358.2l-12.6-25.2 28.4-1z"/><path id="Path-49" class="st6" d="M2093.8 193.8l55.8-59.4 37.8 52z"/><path id="Path-49-Copy-9" class="st0" d="M822.4 676.1l111.7 16.1-28.9 84.3z"/><path id="Path-49-Copy-10" class="st6" d="M839 661.1l111.7 16.1-28.9 84.3z"/><path id="Path-49-Copy-7" class="st7" d="M731.2 107.2L654 201.7 592 128z"/><path id="Path-49-Copy-2" class="st8" d="M2559.4 544.8v-24l30.5 13.5z"/></svg>