<svg width="768" height="592" viewBox="0 0 768 592" xmlns="http://www.w3.org/2000/svg"><title>Group 34</title><g fill="none" fill-rule="evenodd"><circle fill="#F0FB72" cx="575" cy="15" r="2"/><circle fill="#F0FB72" cx="531" cy="222" r="2"/><circle fill="#F0FB72" cx="676" cy="229" r="2"/><circle fill="#F0FB72" cx="609" cy="299" r="2"/><circle fill="#F0FB72" cx="452" cy="283" r="2"/><circle fill="#F0FB72" cx="622" cy="401" r="2"/><circle fill="#F0FB72" cx="658" cy="413" r="2"/><circle fill="#F0FB72" cx="766" cy="297" r="2"/><circle fill="#F0FB72" cx="611" cy="547" r="2"/><circle fill="#F0FB72" cx="529" cy="469" r="2"/><circle fill="#F0FB72" cx="430" cy="443" r="2"/><circle fill="#F0FB72" cx="422" cy="465" r="2"/><circle fill="#F0FB72" cx="350" cy="407" r="2"/><circle fill="#F0FB72" cx="351" cy="585" r="2"/><circle fill="#F0FB72" cx="243" cy="590" r="2"/><circle fill="#F0FB72" cx="160" cy="541" r="2"/><circle fill="#F0FB72" cx="88" cy="487" r="2"/><circle fill="#F0FB72" cx="73" cy="396" r="2"/><circle fill="#F0FB72" cx="14.5" cy="377.5" r="5.5"/><circle fill="#F0FB72" cx="5" cy="252" r="4"/><circle fill="#F0FB72" cx="74.5" cy="56.5" r="5.5"/><circle fill="#F0FB72" cx="164" cy="295" r="2"/><circle fill="#F0FB72" cx="2" cy="290" r="2"/><circle fill="#F0FB72" cx="86" cy="236" r="2"/><circle fill="#F0FB72" cx="76.5" cy="2.5" r="2.5"/><circle fill="#F0FB72" cx="242" cy="16" r="2"/><circle fill="#F0FB72" cx="205.5" cy="529.5" r="5.5"/><circle fill="#F0FB72" cx="567" cy="523" r="5"/><circle fill="#F0FB72" cx="738" cy="199" r="5"/><circle fill="#F0FB72" cx="538" cy="3" r="2"/><path fill="#FFF" d="M643.704 13.725l2.02 4.917-2.02-4.917-1.979-4.943 1.979 4.943-4.93 1.985 4.93-1.985 4.951-2.011-4.951 2.011-1.912 9.703 1.912-9.703 1.952-9.729-1.952 9.729-9.706-1.942 9.706 1.942 9.737 1.92-9.737-1.92-3.874 2.119 3.874-2.119 3.886-2.144-3.886 2.144-2.129-3.888 2.129 3.888 2.15 3.863-2.15-3.863 1.309 11.779-1.309-11.779-1.301-11.803 1.301 11.803-11.772 1.311 11.772-1.311 11.789-1.333-11.789 1.333-.068.522.068-.522.077-.543-.077.543-.533-.089.533.089.558.066-.558-.066-1.846 10.094 1.846-10.094 1.877-10.114-1.877 10.114-10.104-1.878 10.104 1.878 10.115 1.854-10.115-1.854 3.141 9.615-3.141-9.615-3.131-9.638 3.131 9.638-9.619 3.111 9.619-3.111 9.636-3.129-9.636 3.129.389 12.704-.389-12.704L643.348 1l.356 12.725L631 14.08l12.704-.355 12.733-.378-12.733.378-.901 1.464.901-1.464.911-1.484-.911 1.484-1.488-.901 1.488.901 1.498.88-1.498-.88.232 2.596-.232-2.596-.224-2.599.224 2.599-2.587.199 2.587-.199 2.598-.224-2.598.224-1.532 5.573 1.532-5.573 1.539-5.599-1.539 5.599-5.571-1.556 5.571 1.556 5.606 1.534-5.606-1.534-.333.88.333-.88.366-.901-.366.901-.878-.355.878.355.911.331-.911-.331-.112.124.112-.124.122-.157-.122.157-.134-.135.134.135.141.109-.141-.109-.968 1.109.968-1.109.977-1.13-.977 1.13-1.104-.988 1.104.988 1.108.978-1.108-.978-6.542 11.469 6.542-11.469 6.55-11.461-6.55 11.461-11.461-6.573 11.461 6.573 11.47 6.551z"/><path fill="#FFF" d="M647.21 26.476l-3.361-12.272.31 1.21h-.021l-.391-1.619v.13l.102 1.288h-.025l-.097-1.44-1.21 4.218 1.189-4.175-2.047 4.829 1.999-4.772-4.506 8.882h-.022l4.576-8.96-7.377 9.214 7.152-8.972-1.421 1.698h-.023l1.556-1.855-8.571 9.129h-.025l8.685-9.214-.377.266.266-.202-8.303 5.708 7.815-5.388-7.595 5.079v-.024l8.105-5.418-4.898 2.799v-.024l4.942-2.796-.788.34v-.03l.809-.332L631 17.227v-.024l12.283-3.344-1.246.302 1.621-.412h-.109l-1.29.088v-.021l1.447-.089-4.222-1.22 4.153 1.196-4.797-2.03v-.022l4.753 2.031-8.885-4.541h.027l8.947 4.562-9.205-7.36V6.32l8.935 7.161-1.664-1.421 1.823 1.555-9.094-8.605 9.205 8.672-.288-.355.018-.023.202.266-5.708-8.281v-.024l5.377 7.81-5.064-7.566 5.439 8.106-2.796-4.92h.022l2.798 4.944-.335-.769.359.791L640.263 1l3.351 12.283-.309-1.223h.022l.4 1.622-.021-.133-.069-1.284.09 1.438 1.222-4.218h.022l-1.224 4.176 2.065-4.831h.023l-2.031 4.762 4.508-8.883h.023l-4.588 8.994 7.385-9.238-7.149 8.972 1.418-1.698.025.024-1.559 1.829 8.598-9.127V4.5l-8.685 9.182.379-.264-.267.197 8.309-5.706v.024l-7.808 5.371 7.571-5.086v.023l-8.097 5.42 4.899-2.778h.022l-4.964 2.799.788-.332v.022l-.808.331 12.656-3.453.025.023-12.283 3.342 1.224-.288-1.622.4h.111l1.287-.088v.022l-1.422.088 4.223 1.219-4.179-1.195 4.81 2.033v.021l-4.767-2.032 8.899 4.539-8.986-4.561 9.232 7.363-.026.018-8.938-7.161 1.676 1.421-1.832-1.555 9.094 8.608v.021l-9.206-8.693.291.366v.018l-.222-.274 5.707 8.286v.018l-5.373-7.802 5.05 7.557v.023l-5.409-8.128 2.776 4.932-2.82-4.954.335.767-.368-.788zm-.116 322.612l.79 1.974-.79-1.974-.811-1.989.811 1.989-1.988.798 1.988-.798 1.968-.8-1.968.8-.787 3.884.787-3.884.768-3.891-.768 3.891-3.893-.779 3.893.779 3.891.775-3.891-.775-1.556.852 1.556-.852 1.546-.865-1.546.865-.853-1.555.853 1.555.854 1.554-.854-1.554.523 4.706-.523-4.706-.544-4.719.544 4.719-4.72.533 4.72-.533 4.722-.524-4.722.524-.045.222.045-.222.035-.214-.035.214-.222-.023.222.023.212.032-.212-.032-.744 4.041.744-4.041.746-4.042-.746 4.042-4.054-.757 4.054.757 4.044.744-4.044-.744 1.245 3.853-1.245-3.853-1.255-3.854 1.255 3.854-3.852 1.266 3.852-1.266 3.844-1.247-3.844 1.247.147 5.095-.147-5.095-.158-5.088.158 5.088-5.094.152 5.094-.152 5.087-.157-5.087.157-.354.598.354-.598.369-.592-.369.592-.608-.356.608.356.592.351-.592-.351.1 1.032-.1-1.032-.086-1.048.086 1.048-1.031.087 1.031-.087 1.044-.093-1.044.093-.634 2.241.634-2.241.609-2.246-.609 2.246-2.23-.614 2.23.614 2.232.621-2.232-.621-.158.351.158-.351.147-.356-.147.356-.354-.136.354.136.348.142-.348-.142-.045.064.045-.064.056-.056-.056.056-.068-.056.068.056.056.058-.056-.058-.396.441.396-.441.392-.445-.392.445-.441-.391.441.391.434.385-.434-.385-2.609 4.583 2.609-4.583 2.62-4.586-2.62 4.586-4.596-2.623 4.596 2.623 4.585 2.618z"/><path fill="#FFF" d="M648.473 354.191l-1.323-4.909.114.491-.17-.644v.042l.035.523-.035-.577-.488 1.688v-.011l.468-1.654-.811 1.908.786-1.887-1.797 3.54 1.822-3.584-2.955 3.684 2.867-3.573-.57.666.61-.733-3.43 3.64 3.478-3.684-.154.111.106-.074-3.319 2.271 3.123-2.152-3.036 2.032 3.232-2.176-1.965 1.109 1.988-1.121-.309.132.309-.132-5.049 1.377 4.894-1.34-.478.119v-.013l.633-.154h-.041l-.503.034.569-.044-1.686-.49 1.661.49-1.921-.823v-.021l1.898.821-3.539-1.811v-.008l3.587 1.842-3.701-2.966 3.591 2.874-.681-.577.743.614-3.653-3.433h.024l3.677 3.476-.11-.145v-.023l.085.11-2.299-3.318 2.17 3.12-2.036-3.033 2.165 3.246-1.097-1.958 1.122 1.958-.138-.29v-.011l.138.333-1.378-5.073 1.353 4.916-.129-.489.154.646v-.047l-.025-.522.045.58.478-1.688-.478 1.645.812-1.912.024.009-.801 1.903 1.798-3.566-1.833 3.609 2.965-3.697-2.865 3.595.554-.686h.024l-.622.73 3.422-3.639h.019l-3.462 3.697.135-.123-.089.08 3.31-2.277-3.135 2.152 3.043-2.022-3.243 2.179 1.953-1.124-1.974 1.135.313-.145-.313.157 5.073-1.388-4.918 1.333.488-.102-.643.157h.046l.511-.055-.592.055 1.699.488-1.664-.467 1.933.809-1.912-.797 3.556 1.796v.012l-3.612-1.82 3.711 2.943-3.589-2.854.668.567-.734-.619 3.655 3.44-3.711-3.477.147.156h-.025l-.066-.112 2.278 3.31v.021l-2.144-3.132 1.999 3.024v.019l-2.154-3.249 1.12 1.962h-.022l-1.133-1.976.17.298-.023.009-.147-.318zm-41.367 158.916l.788 1.982-.788-1.982-.799-1.965.799 1.965-1.987.794 1.987-.794 1.958-.799-1.958.799-.778 3.881.778-3.881.766-3.882-.766 3.882-3.888-.767 3.888.767 3.879.78-3.879-.78-1.556.857 1.556-.857 1.556-.865-1.556.865-.867-1.56.867 1.56.853 1.548-.853-1.548.512 4.705-.512-4.705-.522-4.714.522 4.714-4.718.523 4.718-.523 4.706-.52-4.706.52-.019.202.019-.202.025-.212-.025.212-.232-.02.232.02.202.041-.202-.041-.755 4.039.755-4.039.746-4.036-.746 4.036-4.042-.738 4.042.738 4.043.743-4.043-.743 1.244 3.849-1.244-3.849-1.265-3.852 1.265 3.852-3.862 1.25 3.862-1.25 3.854-1.244-3.854 1.244.157 5.09-.157-5.09-.155-5.107.155 5.107-5.106.157 5.106-.157 5.074-.156-5.074.156-.365.596.365-.596.356-.589-.356.589-.587-.354.587.354.576.359-.576-.359.089 1.032-.089-1.032-.088-1.035.088 1.035-1.044.091 1.044-.091 1.034-.074-1.034.074-.612 2.238.612-2.238.601-2.239-.601 2.239-2.242-.609 2.242.609 2.232.625-2.232-.625-.133.359.133-.359.133-.354-.133.354-.365-.147.365.147.356.146-.356-.146-.045.069.045-.069.045-.043-.045.043-.067-.043.067.043.045.057-.045-.057-.389.446.389-.446.374-.438-.374.438-.454-.39.454.39.444.393-.444-.393-2.619 4.58 2.619-4.58 2.619-4.586-2.619 4.586-4.585-2.62 4.585 2.62 4.575 2.617z"/><path fill="#FFF" d="M608.482 518.197l-1.331-4.896.112.487-.157-.64v.036l.045.519h-.02l-.025-.572-.497 1.683v-.013l.478-1.647-.824 1.904.824-1.882-1.813 3.535h-.022l1.835-3.58-2.945 3.679 2.853-3.571-.57.662.636-.725-3.465 3.634 3.491-3.679-.157.108.109-.075-3.319 2.268 3.111-2.146-3.021 2.024 3.251-2.162-1.966 1.108h-.019l1.985-1.125-.32.133.346-.133-5.087 1.372 4.93-1.339-.505.122v-.014l.662-.146h-.048l-.52.028.568-.047-1.703-.486 1.677.486-1.922-.831v-.007l1.9.819-3.555-1.812 3.603 1.831-3.689-2.964 3.575 2.882-.666-.577.732.616-3.641-3.435 3.689 3.469-.114-.15v-.016l.088.119-2.288-3.327 2.157 3.122-2.045-3.035 2.176 3.253-1.113-1.967 1.139 1.979-.136-.307v-.015l.136.334-1.378-5.088 1.352 4.924-.131-.476h.021l.155.64v-.042l-.045-.528.045.589.488-1.691-.488 1.672.833-1.946v.017l-.808 1.905 1.794-3.574-1.819 3.608 2.955-3.699-2.866 3.589.589-.68-.633.743 3.453-3.652-3.473 3.699.132-.129h.02l-.111.095 3.309-2.281-3.106 2.149 3.019-2.047-3.243 2.203 1.954-1.124-1.954 1.134.289-.147-.309.156 5.073-1.386v.009l-4.921 1.334.501-.116-.653.159h.041l.51-.031-.576.031 1.688.496-1.663-.472 1.933.809-1.913-.792 3.564 1.785-3.584-1.802 3.674 2.938-3.587-2.861.676.58-.722-.624 3.633 3.438-3.674-3.471.108.155-.088-.11 2.277 3.313v.011l-2.145-3.127 2.035 3.016-.024.012-2.163-3.237 1.119 1.95-1.119-1.96.132.313-.157-.319 1.399 5.049zm-135.78 9.529l2.021 4.918-2.021-4.918-1.977-4.944 1.977 4.944-4.929 1.985 4.929-1.985 4.953-2.014-4.953 2.014-1.909 9.704 1.909-9.704 1.954-9.725-1.954 9.725-9.704-1.943 9.704 1.943 9.739 1.918-9.739-1.918-3.874 2.121 3.874-2.121 3.887-2.143-3.887 2.143-2.13-3.888 2.13 3.888 2.153 3.863-2.153-3.863 1.311 11.781-1.311-11.781-1.3-11.808 1.3 11.808-11.77 1.309 11.77-1.309 11.791-1.336-11.791 1.336-.066.521.066-.521.078-.546-.078.546-.533-.091.533.091.558.066-.558-.066-1.844 10.092 1.844-10.092 1.879-10.116-1.879 10.116-10.103-1.878 10.103 1.878 10.116 1.857-10.116-1.857 3.142 9.616-3.142-9.616-3.131-9.641 3.131 9.641-9.616 3.108 9.616-3.108 9.64-3.133-9.64 3.133.391 12.701-.391-12.701-.354-12.726.354 12.726-12.702.354 12.702-.354 12.736-.38-12.736.38-.901 1.464.901-1.464.913-1.488-.913 1.488-1.488-.901 1.488.901 1.5.876-1.5-.876.233 2.6-.233-2.6-.222-2.599.222 2.599-2.586.2 2.586-.2 2.598-.222-2.598.222-1.53 5.574 1.53-5.574 1.541-5.598-1.541 5.598-5.57-1.557 5.57 1.557 5.608 1.529-5.608-1.529-.331.876.331-.876.366-.901-.366.901-.875-.358.875.358.913.331-.913-.331-.111.121.111-.121.122-.158-.122.158-.133-.136.133.136.144.11-.144-.11-.967 1.109.967-1.109.978-1.136-.978 1.136-1.102-.987 1.102.987 1.111.975-1.111-.975-6.541 11.471 6.541-11.471 6.55-11.46-6.55 11.46-11.458-6.575 11.458 6.575 11.473 6.55z"/><path fill="#FFF" d="M476.212 540.474l-3.364-12.271.312 1.21h-.024l-.387-1.618v.133l.099 1.286h-.023l-.099-1.44-1.209 4.218 1.189-4.176-2.045 4.832 1.998-4.777-4.506 8.881h-.022l4.575-8.957-7.376 9.213 7.152-8.971-1.42 1.699h-.021l1.552-1.856-8.568 9.128h-.027l8.685-9.213-.378.265.264-.199-8.299 5.707 7.812-5.386-7.595 5.072v-.018l8.106-5.42-4.899 2.798v-.022l4.941-2.797-.784.342v-.033l.808-.33L460 531.223v-.02l12.281-3.342-1.24.297 1.618-.408h-.11l-1.29.088v-.022l1.447-.092-4.222-1.22 4.151 1.201-4.793-2.033v-.021l4.751 2.032-8.885-4.541h.026l8.949 4.563-9.205-7.363v-.021l8.934 7.162-1.663-1.419 1.82 1.551-9.091-8.605 9.205 8.673-.288-.357.017-.022.202.266-5.707-8.282v-.022l5.374 7.806-5.061-7.561 5.439 8.104-2.795-4.918h.02l2.799 4.94-.336-.766.359.789-3.442-12.66 3.35 12.283-.309-1.219h.022l.399 1.619-.02-.133-.071-1.288.091 1.443 1.224-4.218h.022l-1.223 4.173 2.063-4.832h.023l-2.031 4.764 4.51-8.881h.022l-4.587 8.994 7.382-9.237-7.148 8.974 1.419-1.705.025.024-1.558 1.831 8.597-9.124v.033l-8.684 9.182.378-.266-.267.198 8.307-5.707v.022l-7.807 5.374 7.572-5.086v.024l-8.096 5.418 4.898-2.775h.022l-4.964 2.798.789-.335v.022l-.81.335 12.658-3.455.022.022-12.28 3.343 1.223-.289-1.623.398h.112l1.286-.087v.023l-1.42.09 4.22 1.219-4.177-1.195 4.808 2.031v.023l-4.764-2.033 8.898 4.541-8.985-4.562 9.23 7.362-.024.021-8.939-7.165 1.677 1.421-1.833-1.552 9.095 8.606v.022l-9.206-8.694.289.363v.024l-.223-.278 5.709 8.285v.025l-5.373-7.809 5.051 7.562v.023l-5.41-8.129 2.775 4.928-2.818-4.951.334.766-.367-.788z"/><path fill="#FFF" d="M472.722 526.751l3.098 7.652-3.098-7.652-3.087-7.673 3.087 7.673-7.65 3.099 7.65-3.099 7.663-3.12-7.663 3.12-2.998 15.078 2.998-15.078 3.008-15.068-3.008 15.068-15.08-3.009 15.08 3.009 15.077 2.976-15.077-2.976-6.02 3.307 6.02-3.307 6.007-3.343-6.007 3.343-3.31-6.033 3.31 6.033 3.319 6.008-3.319-6.008 2.032 18.287-2.032-18.287-2.034-18.284 2.034 18.284-18.276 2.03 18.276-2.03 18.288-2.053-18.288 2.053-.115.812.115-.812.107-.833-.107.833-.833-.112.833.112.843.089-.843-.089-2.889 15.668 2.889-15.668 2.885-15.685-2.885 15.685-15.682-2.889 15.682 2.889 15.69 2.889-15.69-2.889 4.851 14.946-4.851-14.946-4.852-14.939 4.852 14.939-14.945 4.851 14.945-4.851 14.944-4.875-14.944 4.875.589 19.73-.589-19.73-.577-19.751.577 19.751-19.722.567 19.722-.567 19.731-.59-19.731.59-1.399 2.296 1.399-2.296 1.397-2.32-1.397 2.32-2.3-1.398 2.3 1.398 2.308 1.378-2.308-1.378.342 4.021-.342-4.021-.335-4.042.335 4.042-4.043.343 4.043-.343 4.02-.347-4.02.347-2.388 8.67 2.388-8.67 2.398-8.67-2.398 8.67-8.662-2.387 8.662 2.387 8.673 2.389-8.673-2.389-.534 1.378.534-1.378.544-1.398-.544 1.398-1.378-.547 1.378.547 1.375.541-1.375-.541-.181.2.181-.2.179-.235-.179.235-.223-.178.223.178.198.176-.198-.176-1.512 1.719 1.512-1.719 1.509-1.723-1.509 1.723-1.711-1.513 1.711 1.513 1.723 1.512-1.723-1.512-10.148 17.786 10.148-17.786 10.157-17.807-10.157 17.807-17.789-10.183 17.789 10.183 17.788 10.16z"/><circle fill="#FFF" cx="662" cy="19" r="2"/></g></svg>