<svg width="1898" height="126" viewBox="0 0 1898 126" xmlns="http://www.w3.org/2000/svg" xmlns:xlink="http://www.w3.org/1999/xlink"><title>Group 47</title><defs><path id="a" d="M130 80h25v9h-25z"/><mask id="u" x="0" y="0" width="25" height="9" fill="#fff"><use xlink:href="#a"/></mask><path id="b" d="M130 98h25v9h-25z"/><mask id="v" x="0" y="0" width="25" height="9" fill="#fff"><use xlink:href="#b"/></mask><path id="c" d="M136 34h13v37h-13z"/><mask id="w" x="0" y="0" width="13" height="37" fill="#fff"><use xlink:href="#c"/></mask><path id="d" d="M620 75h24v5h-24z"/><mask id="x" x="0" y="0" width="24" height="5" fill="#fff"><use xlink:href="#d"/></mask><path id="e" d="M620 85h24v5h-24z"/><mask id="y" x="0" y="0" width="24" height="5" fill="#fff"><use xlink:href="#e"/></mask><path id="f" d="M620 96h24v5h-24z"/><mask id="z" x="0" y="0" width="24" height="5" fill="#fff"><use xlink:href="#f"/></mask><path id="g" d="M620 106h24v5h-24z"/><mask id="A" x="0" y="0" width="24" height="5" fill="#fff"><use xlink:href="#g"/></mask><path id="h" d="M620 119h24v7h-24z"/><mask id="B" x="0" y="0" width="24" height="7" fill="#fff"><use xlink:href="#h"/></mask><path id="i" d="M662 55h8v7h-8z"/><mask id="C" x="0" y="0" width="8" height="7" fill="#fff"><use xlink:href="#i"/></mask><path id="j" d="M662 65h8v7h-8z"/><mask id="D" x="0" y="0" width="8" height="7" fill="#fff"><use xlink:href="#j"/></mask><path id="k" d="M662 75h8v7h-8z"/><mask id="E" x="0" y="0" width="8" height="7" fill="#fff"><use xlink:href="#k"/></mask><path id="l" d="M1359 71h5v6h-5z"/><mask id="F" x="0" y="0" width="5" height="6" fill="#fff"><use xlink:href="#l"/></mask><path id="m" d="M1359 79h5v6h-5z"/><mask id="G" x="0" y="0" width="5" height="6" fill="#fff"><use xlink:href="#m"/></mask><path id="n" d="M1397 82h4.136v4.964H1397z"/><mask id="H" x="0" y="0" width="4.136" height="4.964" fill="#fff"><use xlink:href="#n"/></mask><path id="o" d="M1423 95h4.136v4.964H1423z"/><mask id="I" x="0" y="0" width="4.136" height="4.964" fill="#fff"><use xlink:href="#o"/></mask><path id="p" d="M1367 71h5v6h-5z"/><mask id="J" x="0" y="0" width="5" height="6" fill="#fff"><use xlink:href="#p"/></mask><path id="q" d="M1367 79h5v6h-5z"/><mask id="K" x="0" y="0" width="5" height="6" fill="#fff"><use xlink:href="#q"/></mask><path id="r" d="M1404 82h4.136v4.964H1404z"/><mask id="L" x="0" y="0" width="4.136" height="4.964" fill="#fff"><use xlink:href="#r"/></mask><path id="s" d="M1430 95h4.136v4.964H1430z"/><mask id="M" x="0" y="0" width="4.136" height="4.964" fill="#fff"><use xlink:href="#s"/></mask><path id="t" d="M1264 103h11v20h-11z"/><mask id="N" x="0" y="0" width="11" height="20" fill="#fff"><use xlink:href="#t"/></mask></defs><g transform="translate(-21 1)" fill="none" fill-rule="evenodd"><g opacity=".851" stroke="#00F58E" stroke-linecap="round"><path d="M737.439 141.94s-21.224-96.634-17.424-102.633c0 0-1.23-2.163 5.553-8.922m20.494 116.461s-27.275-78.15-26.307-104.23"/><path d="M732.35 22.656s-10.333 4.188-7.103 22.86c3.227 18.671 29.569 102.918 29.569 102.918"/><path d="M740.101 20.404s-13.563 1.287-10.98 10.948c2.583 9.656 11.852 93.29 38.334 116.471"/><path d="M761.415 12.035s-19.7 2.898-22.606 20.605c-2.906 17.703.088 114.604.088 114.604"/><path d="M779.502 10.743S745.27 4.308 767.23 37.468c21.961 33.156 75.938 116.124 75.938 116.124"/><path d="M765.938 11.068s-12.27.323-5.813 26.72c6.456 26.399 26.706 109.069 26.706 109.069M744.298 22.98l10.518 125.85"/><path d="M731.704 111.834s5.49-49.577 58.777-84.345C838.28-4.384 909.652 10.424 909.652 10.424s82.346 8.372 140.152 39.597m-268.465 96.514S732.027 52.597 729.12 31.351"/><path d="M720.076 50.023s111.42 25.432 157.277 43.14c45.858 17.705 121.105 37.343 127.563 40.241"/><path d="M812.125 146.45S739.782 42.298 738.166 27.49c-4.52-6.761 10.011-10.626 10.011-10.626m67.82-9.982s-72.664 6.763-89.456 80.163"/><path d="M796.62 7.53s-14.21.638-10.982 5.794c3.23 5.15 6.783 18.027 41.662 58.912 34.876 40.886 61.236 75.008 61.236 75.008"/><path d="M786.608 8.815s-19.052 3.863-13.885 23.18c5.166 19.312 29.451 117.23 29.451 117.23"/><path d="M739.78 134.047s10.012-40.885 67.819-74.365c57.809-33.484 83.321-44.748 108.511-48.939"/><path d="M806.951 151.606S796.296 13 809.535 8.494c0-1.934 6.463-.326 6.463-.326"/><path d="M832.788 10.1s-22.603-11.91-20.99 18.354c1.614 30.262 16.642 125.138 16.642 125.138m-24.275-7.142S787.897 30.06 787.897 24.266c0-5.792.648-16.418 20.67-17.061"/><path d="M846.025 8.494s-21.633-5.475-13.24 16.74c8.4 22.212 48.986 123.991 48.986 123.991"/><path d="M818.89 152.401l46.835-124.27s6.78-15.773 31.974-19.637"/><path d="M868.638 6.56s-14.535-.642-4.847 16.744c9.688 17.382 94.237 128.843 94.237 128.843"/><path d="M901.251 8.494s-14.534-3.868-13.887 28.65c.647 32.517-2.807 110.1-2.807 110.1"/><path d="M884.78 7.205s-20.022-3.543-9.364 46.681c10.655 50.224 20.344 91.751 20.344 91.751"/><path d="M809.338 147.64s97.726-55.122 168.128-82.488c70.4-27.364 102.697-38.63 102.697-38.63"/><path d="M908.998 9.78s2.587 2.578 1.614 52.798c-.965 50.22-6.156 85.856-6.156 85.856"/><path d="M832.024 150.417S909 28.772 929.026 17.83c20.02-10.946 20.342-4.828 31.647 13.199 11.302 18.028 49.411 113.32 49.411 113.32"/><path d="M877.564 145.166s64.375-111.24 74.065-120.254c9.689-9.015 17.764-9.015 30.36-7.73 12.597 1.29 41.333 3.866 52.637 11.592 11.305 7.725 47.943 86.19 57.162 105.273 7.61 15.753 5.169 15.91 5.169 15.91"/><path d="M1039.794 147.247L981.99 43.904s-20.671-29.939-5.17-27.364m18.732 1.933L930.412 149.8M946.14 12.358l13.826 139.147M975.53 15.899s106.893 15.13 165.022 51.507c58.134 36.38 51.999 52.477 51.999 52.477m-181.824-99.157s9.69 110.426 9.69 128.13"/><path d="M1019.45 21.048s20.02-2.574 26.48 11.912c6.458 14.486-14.53 119.756-14.53 119.756"/><path d="M1033.982 21.69s16.795-2.573 21.962 8.05c5.165 10.623 6.782 120.636 6.782 120.636"/><path d="M934.515 148.856L1117.3 31.67s12.148 1.197 12.54 22.415c.393 21.216 1.183 95.168 1.183 95.168"/><path d="M1069.12 150.347s71.755-91.63 74.338-98.393c2.586-6.76 2.264-18.352-8.718-16.744 0 0-27.45 27.045-42.305 40.566-14.855 13.52-102.439 71.996-102.439 71.996"/><path d="M1080.808 30.704s10.977-6.437 18.73-.643c7.751 5.794 1.228 95.31-6.198 115.268"/><path d="M1053.681 24.912s25.188-8.372 43.274 20.926c18.086 29.29 44.694 100.612 44.694 100.612"/><path d="M1012.704 147.244s134.084-56.226 157.338-70.37c23.253-14.146 32.317-14.536 23.253-25.147"/><path d="M1154.783 148.037s-5.234-77.054-7.995-91.989c-2.76-14.929-26.8-23.965-26.8-23.965s-11.828-3.143-22.466-2.357"/><path d="M1109.345 145.988s68.973-62.041 78.434-83.26c4.338-14.143-6.699-17.68-6.699-17.68"/><path d="M1134.568 147.29s16.555-84.169 14.585-95.956c-1.97-11.786-6.36-17.311-14.413-16.124m27.42 112.08s11.036-85.345 11.036-91.242c0-5.892-.396-14.534-17.342-17.679"/><path d="M1175.956 147.99s-5.125-83.297-6.702-90.762c-1.575-7.464-7.093-16.109-16.551-19.252"/><path d="M1148.759 149.648s9.854-87.704 8.28-97.92c-1.58-10.214-1.186-13.752-8.28-15.326 0 0-18.918-3.534-28.771-4.319"/><path d="M1196.182 98.186s5.14-32.438-10.375-44.1c-13.413-10.087-34.683-17.287-34.683-17.287s18.718 9.939 33.108 33.002c14.291 22.899 15.62 30.49 4.38 77.046"/><path d="M1175.168 126.772s15.763-49.899 18.522-58.543l2.761-8.643"/><path d="M1181.08 144.847s6.304-64.83 6.304-70.33c0-5.503.394-11.79.394-11.79"/><path d="M1159.154 39.504s46.664 1.922 38.48 34.227c-7.423 29.294-15.768 73.08-15.768 73.08"/></g><path d="M1859.947 12.216l-.61 18.248s-22.59 17.03-32.358 17.03c-9.768 0-7.326-.607-7.326-.607v3.04h-4.274v3.65h4.274v2.433l7.326.609v13.99l-14.042 5.473-.61 6.083 10.378 3.65.61 10.34-18.315 4.257v6.691l7.937 1.217-1.221 20.68h14.652v-17.03h10.38v16.422h21.978l.61-14.598h10.99l-.61 14.598h22.59l-.611-13.99h10.379l.61 13.99h12.821l.61-20.68H1921v-6.691l-14.042-4.866-.61-9.732 10.378-4.258v-4.258l-17.705-5.474-.61-10.34 10.989-7.3v-4.865h-3.663v-3.041l-17.705-.609-21.98-15.206-.61-19.464-5.495.608zm-25.642 45.011l52.506.608m-54.948 38.32l63.495-1.217m-57.39-24.33l53.116 1.217m-55.558 12.165l55.558 1.216M303.511 41h105.24l19.776 10.595 33.903 3.531-.707 4.238-21.189 9.888v4.944L481.5 84.791v3.531l-14.126 10.595v29.665h-7.063l-1.413-27.546h-14.126v28.252h-14.126V100.33h-21.189l.706 28.958h-12.007v-27.546l-16.951-1.412-.706 28.958h-4.945l.707-28.252h-28.252l-.707 28.958-8.475-.706.706-28.252h-17.658v28.252h-12.713l.706-29.665-21.189 1.413v28.958l-12.007-.706v-27.546h-16.245v26.84h-4.944l.706-33.197L235 87.616v-5.65l41.672-10.595v-4.238l-21.19-7.77v-3.53l34.61-4.945z" stroke="#00F58E"/><g stroke="#00F58E"><path d="M1489.276 4.471l62.244.471 21.691 28.732L1585 133.529h-7.073l-8.488-85.725-24.992.471 8.96 61.703-37.253.471 9.431-63.587-12.26-8.007-12.26 94.203-31.593.471z"/><path d="M1551.049 5.413v29.203l-38.667 2.355 13.203 9.42 18.862.942 24.992-.47 4.244-13.19zm.471 28.732l17.919 12.717"/></g><path stroke="#00F58E" d="M467.5 134.5H508l.5-28H539l-.5 16.5H558V65l14.5 1 .5 57h22l1-32"/><path d="M561 51.323l.5 14.177m6.5-14.177l.5 14.177" stroke="#00D880"/><path d="M1585.5 132.5h40.5l-1-28.5 32 .5V121h19V63l14.5 1 .5 57h21v11l31.5.5v-45l34.5.5v7.5h7.5v6.5h8s1.01 19.358 1.5 29.5c.01.19 0 1 0 1h17m-133-83.177l.5 14.177m6.5-14.177l.5 14.177M0 127.5h21.5l8-25.5L31 84.5h-4.5v-6H31L32 40h-3.5v-6.5H32L32.5 7H37l-.5 26H40v7.5h-3v38h4.5V85H37l.5 17.5 8 25.5H54V66l18.5-.5V74H81v7.5h12.5L94 125l26 .5 1-95h45.5l.5 93.5 24 .5.5-40.5 32-.5.5 49h32.5" stroke="#00F58E"/><use stroke="#00F58E" mask="url(#u)" stroke-width="2" xlink:href="#a"/><use stroke="#00F58E" mask="url(#v)" stroke-width="2" xlink:href="#b"/><use stroke="#00F58E" mask="url(#w)" stroke-width="2" xlink:href="#c"/><path stroke="#00C579" d="M596 91.5l14.5-.5-.5 43.5h10.5L620 68h7.5v-3.5h12v4h4l.5 63.5h10l-.5-73.5h4V42h2V26h2.5l.5-26h3l.5 26h3v8.5h3V44h3v11.5l2.5.5.5 29.5h4v49h49.5"/><use stroke="#00C579" mask="url(#x)" stroke-width="2" xlink:href="#d"/><use stroke="#00C579" mask="url(#y)" stroke-width="2" xlink:href="#e"/><use stroke="#00C579" mask="url(#z)" stroke-width="2" xlink:href="#f"/><use stroke="#00C579" mask="url(#A)" stroke-width="2" xlink:href="#g"/><use stroke="#00C579" mask="url(#B)" stroke-width="2" xlink:href="#h"/><use stroke="#00C579" mask="url(#C)" stroke-width="2" xlink:href="#i"/><use stroke="#00C579" mask="url(#D)" stroke-width="2" xlink:href="#j"/><use stroke="#00C579" mask="url(#E)" stroke-width="2" xlink:href="#k"/><path stroke="#00F58E" opacity=".83" d="M1291 131h21.5v-29h31.5l-.5 27.5h12v-64h2l1.5-7.5 2-4h10.5l2.5 4 .5 6.5 2 .5v66h18.5V76.5l2-5h10.5l2.5 5-.5 54h10.5V104l-.5-7 5.5-21h5.5l6 20.5-.5 7 .5 27.5 32.5.5"/><use stroke="#00F58E" mask="url(#F)" stroke-width="2" xlink:href="#l"/><use stroke="#00F58E" mask="url(#G)" stroke-width="2" xlink:href="#m"/><use stroke="#00F58E" mask="url(#H)" stroke-width="2" xlink:href="#n"/><use stroke="#00F58E" mask="url(#I)" stroke-width="2" xlink:href="#o"/><use stroke="#00F58E" mask="url(#J)" stroke-width="2" xlink:href="#p"/><use stroke="#00F58E" mask="url(#K)" stroke-width="2" xlink:href="#q"/><use stroke="#00F58E" mask="url(#L)" stroke-width="2" xlink:href="#r"/><use stroke="#00F58E" mask="url(#M)" stroke-width="2" xlink:href="#s"/><path d="M1359 58h15m-16 3h16m-16 3h16m22 10h12.5M1198 132.5h18v-46l12.5-8.5-.5-25.5h3.5V45h5l.5 21.5 6 5v60h10v-60h13l-.5 25.5h11.5v4h10.5v30h19.5" stroke="#00F58E"/><use stroke="#00F58E" mask="url(#N)" stroke-width="2" xlink:href="#t"/><path d="M292 57l133 .5" stroke="#00F58E"/></g></svg>